<svg width="239" height="37" viewBox="0 0 239 37" fill="none" xmlns="http://www.w3.org/2000/svg">
<path d="M12.18 4.79836H12.1L11.02 7.01836L8.16 12.2984L5.3 7.01836L4.22 4.79836H4.14V14.8184H1.64V0.858359H4.62L8.2 7.67836H8.28L11.82 0.858359H14.68V14.8184H12.18V4.79836ZM19.1681 0.858359H24.2481C25.1548 0.858359 25.9748 1.00503 26.7081 1.29836C27.4548 1.59169 28.0881 2.03169 28.6081 2.61836C29.1415 3.19169 29.5481 3.91836 29.8281 4.79836C30.1215 5.66503 30.2681 6.67836 30.2681 7.83836C30.2681 8.99836 30.1215 10.0184 29.8281 10.8984C29.5481 11.765 29.1415 12.4917 28.6081 13.0784C28.0881 13.6517 27.4548 14.085 26.7081 14.3784C25.9748 14.6717 25.1548 14.8184 24.2481 14.8184H19.1681V0.858359ZM24.2481 12.4784C25.2348 12.4784 26.0148 12.1917 26.5881 11.6184C27.1748 11.0317 27.4681 10.1384 27.4681 8.93836V6.73836C27.4681 5.53836 27.1748 4.65169 26.5881 4.07836C26.0148 3.49169 25.2348 3.19836 24.2481 3.19836H21.8081V12.4784H24.2481ZM39.5772 15.0584C38.6572 15.0584 37.8239 14.9117 37.0772 14.6184C36.3439 14.3117 35.7105 13.8584 35.1772 13.2584C34.6572 12.6584 34.2572 11.9184 33.9772 11.0384C33.6972 10.145 33.5572 9.11169 33.5572 7.93836C33.5572 6.76503 33.6972 5.72503 33.9772 4.81836C34.2572 3.89836 34.6572 3.13169 35.1772 2.51836C35.7105 1.89169 36.3439 1.41836 37.0772 1.09836C37.8239 0.778359 38.6572 0.618359 39.5772 0.618359C40.8305 0.618359 41.8705 0.885025 42.6972 1.41836C43.5239 1.95169 44.1839 2.75836 44.6772 3.83836L42.4172 5.03836C42.2172 4.41169 41.8905 3.91169 41.4372 3.53836C40.9839 3.15169 40.3639 2.95836 39.5772 2.95836C38.5905 2.95836 37.8039 3.29169 37.2172 3.95836C36.6439 4.62503 36.3572 5.55836 36.3572 6.75836V8.95836C36.3572 10.1717 36.6439 11.105 37.2172 11.7584C37.8039 12.3984 38.5905 12.7184 39.5772 12.7184C40.3639 12.7184 41.0039 12.505 41.4972 12.0784C42.0039 11.6517 42.3705 11.125 42.5972 10.4984L44.7372 11.7584C44.2305 12.7984 43.5572 13.6117 42.7172 14.1984C41.8772 14.7717 40.8305 15.0584 39.5772 15.0584ZM53.6692 3.19836V14.8184H51.0292V3.19836H47.0692V0.858359H57.6292V3.19836H53.6692ZM9.576 36.0224H7.83C7.002 36.0224 6.39 35.8184 5.994 35.4104C5.61 35.0144 5.418 34.4504 5.418 33.7184V32.9624C4.05 32.7584 2.958 32.1104 2.142 31.0184C1.338 29.9264 0.936 28.4324 0.936 26.5364C0.936 25.4804 1.068 24.5504 1.332 23.7464C1.596 22.9304 1.962 22.2464 2.43 21.6944C2.91 21.1424 3.486 20.7284 4.158 20.4524C4.83 20.1764 5.58 20.0384 6.408 20.0384C7.236 20.0384 7.986 20.1764 8.658 20.4524C9.33 20.7284 9.906 21.1424 10.386 21.6944C10.866 22.2464 11.232 22.9304 11.484 23.7464C11.748 24.5504 11.88 25.4804 11.88 26.5364C11.88 28.3964 11.502 29.8604 10.746 30.9284C9.99 31.9964 8.958 32.6564 7.65 32.9084V34.0784H9.576V36.0224ZM6.408 30.9284C7.308 30.9284 8.022 30.6284 8.55 30.0284C9.09 29.4284 9.36 28.5884 9.36 27.5084V25.5644C9.36 24.4844 9.09 23.6444 8.55 23.0444C8.022 22.4444 7.308 22.1444 6.408 22.1444C5.508 22.1444 4.788 22.4444 4.248 23.0444C3.72 23.6444 3.456 24.4844 3.456 25.5644V27.5084C3.456 28.5884 3.72 29.4284 4.248 30.0284C4.788 30.6284 5.508 30.9284 6.408 30.9284ZM33.1365 23.8004H33.0645L32.0925 25.7984L29.5185 30.5504L26.9445 25.7984L25.9725 23.8004H25.9005V32.8184H23.6505V20.2544H26.3325L29.5545 26.3924H29.6265L32.8125 20.2544H35.3865V32.8184H33.1365V23.8004ZM50.0818 32.8184H47.7058V20.2544H53.3758C53.9518 20.2544 54.4678 20.3444 54.9238 20.5244C55.3798 20.7044 55.7638 20.9684 56.0758 21.3164C56.3998 21.6524 56.6458 22.0604 56.8138 22.5404C56.9938 23.0204 57.0838 23.5544 57.0838 24.1424C57.0838 25.0064 56.8858 25.7504 56.4898 26.3744C56.1058 26.9984 55.5238 27.4424 54.7438 27.7064L57.3178 32.8184H54.6718L52.3318 27.9764H50.0818V32.8184ZM53.1418 25.9784C53.5978 25.9784 53.9578 25.8584 54.2218 25.6184C54.4858 25.3664 54.6178 25.0124 54.6178 24.5564V23.7284C54.6178 23.2724 54.4858 22.9244 54.2218 22.6844C53.9578 22.4444 53.5978 22.3244 53.1418 22.3244H50.0818V25.9784H53.1418Z" fill="white"/>
<path d="M90.6406 9.27344C90.6406 10.1641 90.526 10.9766 90.2969 11.7109C90.0677 12.4453 89.724 13.0729 89.2656 13.5938C88.8073 14.1146 88.2292 14.5078 87.5312 14.7734L90.25 17.7188H87.75L85.6016 15.1484C85.5495 15.1484 85.4974 15.1484 85.4453 15.1484C85.3984 15.1536 85.3516 15.1562 85.3047 15.1562C84.3932 15.1562 83.6016 15.0156 82.9297 14.7344C82.263 14.4531 81.7083 14.0521 81.2656 13.5312C80.8281 13.0104 80.5 12.388 80.2812 11.6641C80.0625 10.9401 79.9531 10.138 79.9531 9.25781C79.9531 8.08073 80.1458 7.05469 80.5312 6.17969C80.9219 5.29948 81.513 4.61719 82.3047 4.13281C83.1016 3.64323 84.1068 3.39844 85.3203 3.39844C86.5078 3.39844 87.4948 3.64062 88.2812 4.125C89.0677 4.60938 89.6562 5.29167 90.0469 6.17188C90.4427 7.04688 90.6406 8.08073 90.6406 9.27344ZM81.9219 9.27344C81.9219 10.1536 82.0417 10.9167 82.2812 11.5625C82.5208 12.2031 82.888 12.6979 83.3828 13.0469C83.8828 13.3906 84.5234 13.5625 85.3047 13.5625C86.0911 13.5625 86.7318 13.3906 87.2266 13.0469C87.7214 12.6979 88.0859 12.2031 88.3203 11.5625C88.5547 10.9167 88.6719 10.1536 88.6719 9.27344C88.6719 7.9349 88.4036 6.88802 87.8672 6.13281C87.3359 5.3724 86.487 4.99219 85.3203 4.99219C84.5391 4.99219 83.8958 5.16406 83.3906 5.50781C82.8906 5.85156 82.5208 6.34375 82.2812 6.98438C82.0417 7.61979 81.9219 8.38281 81.9219 9.27344ZM100.605 6.35156V15H99.16L98.91 13.8359H98.8084C98.6261 14.1328 98.3944 14.3802 98.1131 14.5781C97.8319 14.7708 97.5194 14.9141 97.1756 15.0078C96.8319 15.1068 96.4699 15.1562 96.0897 15.1562C95.4386 15.1562 94.8814 15.0469 94.4178 14.8281C93.9595 14.6042 93.6079 14.2604 93.3631 13.7969C93.1183 13.3333 92.9959 12.7344 92.9959 12V6.35156H94.8397V11.6562C94.8397 12.3281 94.9751 12.8307 95.2459 13.1641C95.522 13.4974 95.9491 13.6641 96.5272 13.6641C97.0845 13.6641 97.5272 13.5495 97.8553 13.3203C98.1834 13.0911 98.4152 12.7526 98.5506 12.3047C98.6912 11.8568 98.7616 11.3073 98.7616 10.6562V6.35156H100.605ZM106.789 6.1875C107.882 6.1875 108.708 6.42969 109.265 6.91406C109.828 7.39844 110.109 8.15365 110.109 9.17969V15H108.804L108.453 13.7734H108.39C108.146 14.0859 107.893 14.3438 107.632 14.5469C107.372 14.75 107.07 14.901 106.726 15C106.388 15.1042 105.974 15.1562 105.484 15.1562C104.968 15.1562 104.507 15.0625 104.101 14.875C103.695 14.6823 103.375 14.3906 103.14 14C102.906 13.6094 102.789 13.1146 102.789 12.5156C102.789 11.625 103.119 10.9557 103.781 10.5078C104.448 10.0599 105.453 9.8125 106.797 9.76562L108.297 9.71094V9.25781C108.297 8.65885 108.156 8.23177 107.875 7.97656C107.599 7.72135 107.208 7.59375 106.703 7.59375C106.271 7.59375 105.851 7.65625 105.445 7.78125C105.039 7.90625 104.643 8.0599 104.257 8.24219L103.664 6.94531C104.086 6.72135 104.565 6.53906 105.101 6.39844C105.643 6.25781 106.205 6.1875 106.789 6.1875ZM108.289 10.8672L107.172 10.9062C106.255 10.9375 105.612 11.0938 105.242 11.375C104.872 11.6562 104.687 12.0417 104.687 12.5312C104.687 12.9583 104.815 13.2708 105.07 13.4688C105.325 13.6615 105.661 13.7578 106.078 13.7578C106.713 13.7578 107.239 13.5781 107.656 13.2188C108.078 12.8542 108.289 12.3203 108.289 11.6172V10.8672ZM114.683 15H112.839V2.84375H114.683V15ZM119.304 6.35156V15H117.468V6.35156H119.304ZM118.398 3.03906C118.679 3.03906 118.921 3.11458 119.124 3.26562C119.333 3.41667 119.437 3.67708 119.437 4.04688C119.437 4.41146 119.333 4.67188 119.124 4.82812C118.921 4.97917 118.679 5.05469 118.398 5.05469C118.106 5.05469 117.859 4.97917 117.656 4.82812C117.458 4.67188 117.359 4.41146 117.359 4.04688C117.359 3.67708 117.458 3.41667 117.656 3.26562C117.859 3.11458 118.106 3.03906 118.398 3.03906ZM125.316 13.6719C125.555 13.6719 125.792 13.651 126.027 13.6094C126.261 13.5625 126.474 13.5078 126.667 13.4453V14.8359C126.464 14.9245 126.201 15 125.878 15.0625C125.555 15.125 125.219 15.1562 124.87 15.1562C124.381 15.1562 123.941 15.0755 123.55 14.9141C123.159 14.7474 122.849 14.4635 122.62 14.0625C122.391 13.6615 122.277 13.1068 122.277 12.3984V7.75H121.097V6.92969L122.362 6.28125L122.964 4.42969H124.12V6.35156H126.597V7.75H124.12V12.375C124.12 12.8125 124.23 13.138 124.448 13.3516C124.667 13.5651 124.956 13.6719 125.316 13.6719ZM127.28 6.35156H129.28L131.054 11.2891C131.132 11.513 131.202 11.7344 131.265 11.9531C131.332 12.1667 131.39 12.3776 131.437 12.5859C131.489 12.7943 131.53 13.0026 131.562 13.2109H131.608C131.661 12.9401 131.733 12.638 131.827 12.3047C131.926 11.9661 132.036 11.6276 132.155 11.2891L133.858 6.35156H135.835L132.124 16.1875C131.911 16.75 131.647 17.2292 131.335 17.625C131.028 18.026 130.663 18.3281 130.241 18.5312C129.819 18.7396 129.338 18.8438 128.796 18.8438C128.536 18.8438 128.309 18.8281 128.116 18.7969C127.924 18.7708 127.759 18.7422 127.624 18.7109V17.2422C127.733 17.2682 127.871 17.2917 128.038 17.3125C128.205 17.3333 128.377 17.3438 128.554 17.3438C128.882 17.3438 129.166 17.2786 129.405 17.1484C129.645 17.0182 129.848 16.8333 130.015 16.5938C130.181 16.3594 130.319 16.0911 130.429 15.7891L130.733 14.9766L127.28 6.35156ZM146.741 15L143.452 5.46094H143.382C143.397 5.67448 143.415 5.96615 143.436 6.33594C143.457 6.70573 143.475 7.10156 143.491 7.52344C143.507 7.94531 143.514 8.34896 143.514 8.73438V15H141.811V3.57812H144.444L147.608 12.6953H147.655L150.928 3.57812H153.553V15H151.764V8.64062C151.764 8.29167 151.77 7.91406 151.78 7.50781C151.796 7.10156 151.811 6.71615 151.827 6.35156C151.848 5.98698 151.863 5.69531 151.874 5.47656H151.811L148.397 15H146.741ZM159.979 6.1875C160.75 6.1875 161.411 6.34635 161.963 6.66406C162.516 6.98177 162.94 7.43229 163.237 8.01562C163.534 8.59896 163.682 9.29688 163.682 10.1094V11.0938H157.909C157.93 11.9323 158.154 12.5781 158.581 13.0312C159.013 13.4844 159.617 13.7109 160.393 13.7109C160.945 13.7109 161.44 13.6589 161.878 13.5547C162.32 13.4453 162.776 13.2865 163.245 13.0781V14.5703C162.812 14.7734 162.372 14.9219 161.924 15.0156C161.476 15.1094 160.94 15.1562 160.315 15.1562C159.466 15.1562 158.719 14.9922 158.073 14.6641C157.432 14.3307 156.93 13.8359 156.565 13.1797C156.206 12.5234 156.026 11.7083 156.026 10.7344C156.026 9.76562 156.19 8.94271 156.518 8.26562C156.846 7.58854 157.307 7.07292 157.901 6.71875C158.495 6.36458 159.187 6.1875 159.979 6.1875ZM159.979 7.57031C159.401 7.57031 158.932 7.75781 158.573 8.13281C158.219 8.50781 158.01 9.05729 157.948 9.78125H161.885C161.88 9.34896 161.807 8.96615 161.667 8.63281C161.531 8.29948 161.323 8.03906 161.042 7.85156C160.766 7.66406 160.411 7.57031 159.979 7.57031ZM169.303 6.1875C170.397 6.1875 171.222 6.42969 171.78 6.91406C172.342 7.39844 172.623 8.15365 172.623 9.17969V15H171.319L170.967 13.7734H170.905C170.66 14.0859 170.407 14.3438 170.147 14.5469C169.886 14.75 169.584 14.901 169.241 15C168.902 15.1042 168.488 15.1562 167.998 15.1562C167.483 15.1562 167.022 15.0625 166.616 14.875C166.209 14.6823 165.889 14.3906 165.655 14C165.42 13.6094 165.303 13.1146 165.303 12.5156C165.303 11.625 165.634 10.9557 166.295 10.5078C166.962 10.0599 167.967 9.8125 169.311 9.76562L170.811 9.71094V9.25781C170.811 8.65885 170.67 8.23177 170.389 7.97656C170.113 7.72135 169.722 7.59375 169.217 7.59375C168.785 7.59375 168.366 7.65625 167.959 7.78125C167.553 7.90625 167.157 8.0599 166.772 8.24219L166.178 6.94531C166.6 6.72135 167.079 6.53906 167.616 6.39844C168.157 6.25781 168.72 6.1875 169.303 6.1875ZM170.803 10.8672L169.686 10.9062C168.769 10.9375 168.126 11.0938 167.756 11.375C167.386 11.6562 167.202 12.0417 167.202 12.5312C167.202 12.9583 167.329 13.2708 167.584 13.4688C167.84 13.6615 168.176 13.7578 168.592 13.7578C169.228 13.7578 169.754 13.5781 170.17 13.2188C170.592 12.8542 170.803 12.3203 170.803 11.6172V10.8672ZM181.166 12.5312C181.166 13.099 181.028 13.5781 180.752 13.9688C180.476 14.3594 180.073 14.6562 179.541 14.8594C179.015 15.0573 178.369 15.1562 177.604 15.1562C177 15.1562 176.479 15.112 176.041 15.0234C175.609 14.9401 175.2 14.8099 174.815 14.6328V13.0469C175.226 13.2396 175.687 13.4062 176.198 13.5469C176.713 13.6875 177.2 13.7578 177.658 13.7578C178.263 13.7578 178.698 13.6641 178.963 13.4766C179.229 13.2839 179.362 13.0286 179.362 12.7109C179.362 12.5234 179.307 12.3568 179.198 12.2109C179.093 12.0599 178.895 11.9062 178.604 11.75C178.317 11.5885 177.895 11.3958 177.338 11.1719C176.791 10.9531 176.33 10.7344 175.955 10.5156C175.58 10.2969 175.296 10.0339 175.104 9.72656C174.911 9.41406 174.815 9.01562 174.815 8.53125C174.815 7.76562 175.117 7.1849 175.721 6.78906C176.33 6.38802 177.135 6.1875 178.135 6.1875C178.666 6.1875 179.166 6.24219 179.635 6.35156C180.109 6.45573 180.573 6.60938 181.026 6.8125L180.448 8.19531C180.057 8.02344 179.664 7.88281 179.268 7.77344C178.877 7.65885 178.479 7.60156 178.073 7.60156C177.599 7.60156 177.237 7.67448 176.987 7.82031C176.742 7.96615 176.619 8.17448 176.619 8.44531C176.619 8.64844 176.679 8.82031 176.799 8.96094C176.919 9.10156 177.125 9.24219 177.416 9.38281C177.713 9.52344 178.125 9.69792 178.651 9.90625C179.166 10.1042 179.612 10.3125 179.987 10.5312C180.367 10.7448 180.658 11.0078 180.862 11.3203C181.065 11.6328 181.166 12.0365 181.166 12.5312ZM190.85 6.35156V15H189.404L189.154 13.8359H189.053C188.871 14.1328 188.639 14.3802 188.357 14.5781C188.076 14.7708 187.764 14.9141 187.42 15.0078C187.076 15.1068 186.714 15.1562 186.334 15.1562C185.683 15.1562 185.126 15.0469 184.662 14.8281C184.204 14.6042 183.852 14.2604 183.607 13.7969C183.363 13.3333 183.24 12.7344 183.24 12V6.35156H185.084V11.6562C185.084 12.3281 185.219 12.8307 185.49 13.1641C185.766 13.4974 186.193 13.6641 186.772 13.6641C187.329 13.6641 187.772 13.5495 188.1 13.3203C188.428 13.0911 188.66 12.7526 188.795 12.3047C188.936 11.8568 189.006 11.3073 189.006 10.6562V6.35156H190.85ZM198.025 6.1875C198.171 6.1875 198.33 6.19531 198.502 6.21094C198.674 6.22656 198.822 6.2474 198.947 6.27344L198.775 7.99219C198.666 7.96094 198.531 7.9375 198.369 7.92188C198.213 7.90625 198.072 7.89844 197.947 7.89844C197.619 7.89844 197.307 7.95312 197.01 8.0625C196.713 8.16667 196.45 8.32812 196.221 8.54688C195.991 8.76042 195.812 9.02865 195.682 9.35156C195.551 9.67448 195.486 10.0495 195.486 10.4766V15H193.643V6.35156H195.08L195.33 7.875H195.416C195.588 7.56771 195.801 7.28646 196.057 7.03125C196.312 6.77604 196.603 6.57292 196.932 6.42188C197.265 6.26562 197.629 6.1875 198.025 6.1875ZM204.154 6.1875C204.925 6.1875 205.586 6.34635 206.138 6.66406C206.691 6.98177 207.115 7.43229 207.412 8.01562C207.709 8.59896 207.857 9.29688 207.857 10.1094V11.0938H202.084C202.105 11.9323 202.329 12.5781 202.756 13.0312C203.188 13.4844 203.792 13.7109 204.568 13.7109C205.12 13.7109 205.615 13.6589 206.052 13.5547C206.495 13.4453 206.951 13.2865 207.42 13.0781V14.5703C206.987 14.7734 206.547 14.9219 206.099 15.0156C205.651 15.1094 205.115 15.1562 204.49 15.1562C203.641 15.1562 202.894 14.9922 202.248 14.6641C201.607 14.3307 201.105 13.8359 200.74 13.1797C200.381 12.5234 200.201 11.7083 200.201 10.7344C200.201 9.76562 200.365 8.94271 200.693 8.26562C201.021 7.58854 201.482 7.07292 202.076 6.71875C202.67 6.36458 203.362 6.1875 204.154 6.1875ZM204.154 7.57031C203.576 7.57031 203.107 7.75781 202.748 8.13281C202.394 8.50781 202.185 9.05729 202.123 9.78125H206.06C206.055 9.34896 205.982 8.96615 205.842 8.63281C205.706 8.29948 205.498 8.03906 205.217 7.85156C204.941 7.66406 204.586 7.57031 204.154 7.57031ZM83.7109 21.5781C84.6953 21.5781 85.5078 21.6979 86.1484 21.9375C86.7943 22.1771 87.2734 22.5417 87.5859 23.0312C87.9036 23.5208 88.0625 24.1432 88.0625 24.8984C88.0625 25.4609 87.9583 25.9401 87.75 26.3359C87.5417 26.7318 87.2682 27.0599 86.9297 27.3203C86.5911 27.5807 86.2292 27.7891 85.8438 27.9453L89.0859 33H86.9688L84.2109 28.4219H82.375V33H80.5V21.5781H83.7109ZM83.5859 23.1406H82.375V26.875H83.6719C84.5417 26.875 85.1719 26.7135 85.5625 26.3906C85.9583 26.0677 86.1562 25.5911 86.1562 24.9609C86.1562 24.2995 85.9453 23.8307 85.5234 23.5547C85.1068 23.2786 84.4609 23.1406 83.5859 23.1406ZM94.1366 24.1875C94.9074 24.1875 95.5689 24.3464 96.1209 24.6641C96.673 24.9818 97.0975 25.4323 97.3944 26.0156C97.6912 26.599 97.8397 27.2969 97.8397 28.1094V29.0938H92.0662C92.0871 29.9323 92.311 30.5781 92.7381 31.0312C93.1704 31.4844 93.7746 31.7109 94.5506 31.7109C95.1027 31.7109 95.5975 31.6589 96.035 31.5547C96.4777 31.4453 96.9334 31.2865 97.4022 31.0781V32.5703C96.9699 32.7734 96.5298 32.9219 96.0819 33.0156C95.634 33.1094 95.0975 33.1562 94.4725 33.1562C93.6235 33.1562 92.8761 32.9922 92.2303 32.6641C91.5897 32.3307 91.0871 31.8359 90.7225 31.1797C90.3631 30.5234 90.1834 29.7083 90.1834 28.7344C90.1834 27.7656 90.3475 26.9427 90.6756 26.2656C91.0037 25.5885 91.4647 25.0729 92.0584 24.7188C92.6522 24.3646 93.3449 24.1875 94.1366 24.1875ZM94.1366 25.5703C93.5584 25.5703 93.0897 25.7578 92.7303 26.1328C92.3761 26.5078 92.1678 27.0573 92.1053 27.7812H96.0428C96.0376 27.349 95.9647 26.9661 95.8241 26.6328C95.6886 26.2995 95.4803 26.0391 95.1991 25.8516C94.923 25.6641 94.5689 25.5703 94.1366 25.5703ZM104.507 24.1875C105.534 24.1875 106.356 24.5625 106.976 25.3125C107.601 26.0625 107.914 27.1771 107.914 28.6562C107.914 29.6354 107.768 30.4609 107.476 31.1328C107.19 31.7995 106.786 32.3047 106.265 32.6484C105.75 32.987 105.148 33.1562 104.461 33.1562C104.023 33.1562 103.643 33.099 103.32 32.9844C102.997 32.8698 102.721 32.7214 102.492 32.5391C102.263 32.3516 102.07 32.1484 101.914 31.9297H101.804C101.83 32.138 101.854 32.3698 101.875 32.625C101.901 32.875 101.914 33.1042 101.914 33.3125V36.8359H100.07V24.3516H101.57L101.828 25.5469H101.914C102.075 25.3021 102.271 25.0755 102.5 24.8672C102.734 24.6589 103.015 24.4948 103.343 24.375C103.677 24.25 104.065 24.1875 104.507 24.1875ZM104.015 25.6875C103.51 25.6875 103.104 25.7891 102.797 25.9922C102.494 26.1901 102.273 26.4896 102.132 26.8906C101.997 27.2917 101.924 27.7943 101.914 28.3984V28.6562C101.914 29.2969 101.979 29.8411 102.109 30.2891C102.244 30.7318 102.466 31.0703 102.773 31.3047C103.086 31.5339 103.507 31.6484 104.039 31.6484C104.487 31.6484 104.856 31.526 105.148 31.2812C105.445 31.0365 105.666 30.6875 105.812 30.2344C105.958 29.7812 106.031 29.2474 106.031 28.6328C106.031 27.7005 105.864 26.9766 105.531 26.4609C105.203 25.9453 104.698 25.6875 104.015 25.6875ZM117.855 28.6562C117.855 29.375 117.761 30.013 117.574 30.5703C117.386 31.1276 117.113 31.599 116.753 31.9844C116.394 32.3646 115.962 32.6562 115.457 32.8594C114.951 33.0573 114.381 33.1562 113.746 33.1562C113.152 33.1562 112.608 33.0573 112.113 32.8594C111.618 32.6562 111.188 32.3646 110.824 31.9844C110.464 31.599 110.186 31.1276 109.988 30.5703C109.79 30.013 109.691 29.375 109.691 28.6562C109.691 27.7031 109.855 26.8958 110.183 26.2344C110.516 25.5677 110.99 25.0599 111.605 24.7109C112.22 24.362 112.951 24.1875 113.8 24.1875C114.597 24.1875 115.3 24.362 115.91 24.7109C116.519 25.0599 116.996 25.5677 117.339 26.2344C117.683 26.901 117.855 27.7083 117.855 28.6562ZM111.582 28.6562C111.582 29.2865 111.657 29.8255 111.808 30.2734C111.964 30.7214 112.204 31.0651 112.527 31.3047C112.85 31.5391 113.266 31.6562 113.777 31.6562C114.287 31.6562 114.704 31.5391 115.027 31.3047C115.35 31.0651 115.587 30.7214 115.738 30.2734C115.889 29.8255 115.964 29.2865 115.964 28.6562C115.964 28.026 115.889 27.4922 115.738 27.0547C115.587 26.612 115.35 26.276 115.027 26.0469C114.704 25.8125 114.285 25.6953 113.769 25.6953C113.009 25.6953 112.454 25.9505 112.105 26.4609C111.756 26.9714 111.582 27.7031 111.582 28.6562ZM124.507 24.1875C124.653 24.1875 124.812 24.1953 124.984 24.2109C125.156 24.2266 125.304 24.2474 125.429 24.2734L125.257 25.9922C125.148 25.9609 125.012 25.9375 124.851 25.9219C124.695 25.9062 124.554 25.8984 124.429 25.8984C124.101 25.8984 123.788 25.9531 123.492 26.0625C123.195 26.1667 122.932 26.3281 122.702 26.5469C122.473 26.7604 122.294 27.0286 122.163 27.3516C122.033 27.6745 121.968 28.0495 121.968 28.4766V33H120.124V24.3516H121.562L121.812 25.875H121.898C122.07 25.5677 122.283 25.2865 122.538 25.0312C122.794 24.776 123.085 24.5729 123.413 24.4219C123.747 24.2656 124.111 24.1875 124.507 24.1875ZM130.409 31.6719C130.649 31.6719 130.886 31.651 131.12 31.6094C131.355 31.5625 131.568 31.5078 131.761 31.4453V32.8359C131.558 32.9245 131.295 33 130.972 33.0625C130.649 33.125 130.313 33.1562 129.964 33.1562C129.474 33.1562 129.034 33.0755 128.644 32.9141C128.253 32.7474 127.943 32.4635 127.714 32.0625C127.485 31.6615 127.37 31.1068 127.37 30.3984V25.75H126.191V24.9297L127.456 24.2812L128.058 22.4297H129.214V24.3516H131.691V25.75H129.214V30.375C129.214 30.8125 129.323 31.138 129.542 31.3516C129.761 31.5651 130.05 31.6719 130.409 31.6719ZM135.515 24.3516V33H133.679V24.3516H135.515ZM134.608 21.0391C134.89 21.0391 135.132 21.1146 135.335 21.2656C135.543 21.4167 135.647 21.6771 135.647 22.0469C135.647 22.4115 135.543 22.6719 135.335 22.8281C135.132 22.9792 134.89 23.0547 134.608 23.0547C134.317 23.0547 134.069 22.9792 133.866 22.8281C133.668 22.6719 133.569 22.4115 133.569 22.0469C133.569 21.6771 133.668 21.4167 133.866 21.2656C134.069 21.1146 134.317 21.0391 134.608 21.0391ZM142.815 24.1875C143.789 24.1875 144.547 24.4401 145.089 24.9453C145.636 25.4453 145.909 26.25 145.909 27.3594V33H144.073V27.7031C144.073 27.0312 143.935 26.5286 143.659 26.1953C143.383 25.8568 142.956 25.6875 142.378 25.6875C141.539 25.6875 140.956 25.9453 140.628 26.4609C140.305 26.9766 140.143 27.724 140.143 28.7031V33H138.307V24.3516H139.737L139.995 25.5234H140.097C140.284 25.2214 140.516 24.974 140.792 24.7812C141.073 24.5833 141.386 24.4349 141.729 24.3359C142.078 24.237 142.44 24.1875 142.815 24.1875ZM151.108 36.8438C149.936 36.8438 149.038 36.6328 148.413 36.2109C147.788 35.7891 147.475 35.1979 147.475 34.4375C147.475 33.9062 147.642 33.4557 147.975 33.0859C148.309 32.7214 148.785 32.4688 149.405 32.3281C149.171 32.224 148.967 32.0625 148.796 31.8438C148.629 31.6198 148.546 31.3724 148.546 31.1016C148.546 30.7786 148.637 30.5026 148.819 30.2734C149.001 30.0443 149.275 29.8229 149.639 29.6094C149.186 29.4167 148.822 29.1042 148.546 28.6719C148.275 28.2344 148.139 27.7214 148.139 27.1328C148.139 26.5078 148.272 25.9766 148.538 25.5391C148.803 25.0964 149.191 24.7604 149.702 24.5312C150.212 24.2969 150.829 24.1797 151.553 24.1797C151.71 24.1797 151.879 24.1901 152.061 24.2109C152.249 24.2266 152.421 24.2474 152.577 24.2734C152.738 24.2943 152.861 24.3177 152.944 24.3438H155.936V25.3672L154.467 25.6406C154.608 25.8385 154.72 26.0651 154.803 26.3203C154.887 26.5703 154.928 26.8438 154.928 27.1406C154.928 28.0365 154.619 28.7422 153.999 29.2578C153.384 29.7682 152.535 30.0234 151.452 30.0234C151.191 30.013 150.939 29.9922 150.694 29.9609C150.507 30.0755 150.363 30.2031 150.264 30.3438C150.165 30.4792 150.116 30.6328 150.116 30.8047C150.116 30.9453 150.165 31.0599 150.264 31.1484C150.363 31.2318 150.509 31.2943 150.702 31.3359C150.9 31.3776 151.139 31.3984 151.421 31.3984H152.913C153.861 31.3984 154.585 31.599 155.085 32C155.585 32.401 155.835 32.9896 155.835 33.7656C155.835 34.75 155.428 35.5078 154.616 36.0391C153.803 36.5755 152.634 36.8438 151.108 36.8438ZM151.178 35.5547C151.819 35.5547 152.358 35.4922 152.796 35.3672C153.233 35.2422 153.564 35.0625 153.788 34.8281C154.012 34.599 154.124 34.3255 154.124 34.0078C154.124 33.7266 154.053 33.5104 153.913 33.3594C153.772 33.2083 153.561 33.1042 153.28 33.0469C152.999 32.9896 152.65 32.9609 152.233 32.9609H150.874C150.535 32.9609 150.236 33.013 149.975 33.1172C149.715 33.2266 149.512 33.3828 149.366 33.5859C149.225 33.7891 149.155 34.0339 149.155 34.3203C149.155 34.7161 149.329 35.0208 149.678 35.2344C150.033 35.4479 150.533 35.5547 151.178 35.5547ZM151.538 28.8203C152.074 28.8203 152.473 28.6745 152.733 28.3828C152.994 28.0859 153.124 27.6693 153.124 27.1328C153.124 26.5495 152.988 26.112 152.717 25.8203C152.452 25.5286 152.056 25.3828 151.53 25.3828C151.014 25.3828 150.621 25.5312 150.35 25.8281C150.085 26.125 149.952 26.5651 149.952 27.1484C149.952 27.6745 150.085 28.0859 150.35 28.3828C150.621 28.6745 151.017 28.8203 151.538 28.8203Z" fill="white"/>
<line x1="67.5" y1="2.18557e-08" x2="67.5" y2="34" stroke="#B3ECF8"/>
</svg>
