<svg width="110" height="35" viewBox="0 0 110 35" fill="none" xmlns="http://www.w3.org/2000/svg">
<path d="M8.48047 4.41797C7.37891 4.41797 6.51953 4.87109 5.90234 5.77734C5.28516 6.67578 4.97656 7.91797 4.97656 9.50391C4.97656 12.8008 6.23047 14.4492 8.73828 14.4492C9.49609 14.4492 10.2305 14.3438 10.9414 14.1328C11.6523 13.9219 12.3672 13.668 13.0859 13.3711V17.2852C11.6562 17.918 10.0391 18.2344 8.23438 18.2344C5.64844 18.2344 3.66406 17.4844 2.28125 15.9844C0.90625 14.4844 0.21875 12.3164 0.21875 9.48047C0.21875 7.70703 0.550781 6.14844 1.21484 4.80469C1.88672 3.46094 2.84766 2.42969 4.09766 1.71094C5.35547 0.984375 6.83203 0.621094 8.52734 0.621094C10.3789 0.621094 12.1484 1.02344 13.8359 1.82812L12.418 5.47266C11.7852 5.17578 11.1523 4.92578 10.5195 4.72266C9.88672 4.51953 9.20703 4.41797 8.48047 4.41797Z" fill="white"/>
<path d="M32.4688 9.41016C32.4688 12.293 31.7617 14.4844 30.3477 15.9844C28.9336 17.4844 26.8633 18.2344 24.1367 18.2344C21.4492 18.2344 19.3867 17.4805 17.9492 15.9727C16.5195 14.4648 15.8047 12.2695 15.8047 9.38672C15.8047 6.53516 16.5156 4.35938 17.9375 2.85938C19.3672 1.35156 21.4414 0.597656 24.1602 0.597656C26.8867 0.597656 28.9531 1.34375 30.3594 2.83594C31.7656 4.32812 32.4688 6.51953 32.4688 9.41016ZM20.6797 9.41016C20.6797 12.7227 21.832 14.3789 24.1367 14.3789C25.3086 14.3789 26.1758 13.9766 26.7383 13.1719C27.3086 12.3672 27.5938 11.1133 27.5938 9.41016C27.5938 7.69922 27.3047 6.4375 26.7266 5.625C26.1562 4.80469 25.3008 4.39453 24.1602 4.39453C21.8398 4.39453 20.6797 6.06641 20.6797 9.41016Z" fill="white"/>
<path d="M40.1914 11.7656V18H35.5625V0.867188H41.1758C45.832 0.867188 48.1602 2.55469 48.1602 5.92969C48.1602 7.91406 47.1914 9.44922 45.2539 10.5352L50.2461 18H44.9961L41.3633 11.7656H40.1914ZM40.1914 8.28516H41.0586C42.6758 8.28516 43.4844 7.57031 43.4844 6.14062C43.4844 4.96094 42.6914 4.37109 41.1055 4.37109H40.1914V8.28516Z" fill="white"/>
<path d="M61.9766 18H51.8047V0.867188H61.9766V4.58203H56.4336V7.27734H61.5664V10.9922H56.4336V14.2266H61.9766V18Z" fill="white"/>
<path d="M82.4141 12.7969C82.4141 13.8594 82.1445 14.8047 81.6055 15.6328C81.0664 16.4531 80.2891 17.0938 79.2734 17.5547C78.2578 18.0078 77.0664 18.2344 75.6992 18.2344C74.5586 18.2344 73.6016 18.1562 72.8281 18C72.0547 17.8359 71.25 17.5547 70.4141 17.1562V13.0312C71.2969 13.4844 72.2148 13.8398 73.168 14.0977C74.1211 14.3477 74.9961 14.4727 75.793 14.4727C76.4805 14.4727 76.9844 14.3555 77.3047 14.1211C77.625 13.8789 77.7852 13.5703 77.7852 13.1953C77.7852 12.9609 77.7188 12.7578 77.5859 12.5859C77.4609 12.4062 77.2539 12.2266 76.9648 12.0469C76.6836 11.8672 75.9258 11.5 74.6914 10.9453C73.5742 10.4375 72.7344 9.94531 72.1719 9.46875C71.6172 8.99219 71.2031 8.44531 70.9297 7.82812C70.6641 7.21094 70.5312 6.48047 70.5312 5.63672C70.5312 4.05859 71.1055 2.82812 72.2539 1.94531C73.4023 1.0625 74.9805 0.621094 76.9883 0.621094C78.7617 0.621094 80.5703 1.03125 82.4141 1.85156L80.9961 5.42578C79.3945 4.69141 78.0117 4.32422 76.8477 4.32422C76.2461 4.32422 75.8086 4.42969 75.5352 4.64062C75.2617 4.85156 75.125 5.11328 75.125 5.42578C75.125 5.76172 75.2969 6.0625 75.6406 6.32812C75.9922 6.59375 76.9375 7.07812 78.4766 7.78125C79.9531 8.44531 80.9766 9.16016 81.5469 9.92578C82.125 10.6836 82.4141 11.6406 82.4141 12.7969Z" fill="white"/>
<path d="M95.2344 18H85.0625V0.867188H95.2344V4.58203H89.6914V7.27734H94.8242V10.9922H89.6914V14.2266H95.2344V18Z" fill="white"/>
<path d="M105.793 18H101.164V4.65234H96.9805V0.867188H109.965V4.65234H105.793V18Z" fill="white"/>
<path d="M2.89844 29.25V34H1.57031V22.5781H4.70312C6.10417 22.5781 7.13802 22.8464 7.80469 23.3828C8.47656 23.9193 8.8125 24.7266 8.8125 25.8047C8.8125 27.3151 8.04688 28.3359 6.51562 28.8672L9.61719 34H8.04688L5.28125 29.25H2.89844ZM2.89844 28.1094H4.71875C5.65625 28.1094 6.34375 27.9245 6.78125 27.5547C7.21875 27.1797 7.4375 26.6198 7.4375 25.875C7.4375 25.1198 7.21354 24.5755 6.76562 24.2422C6.32292 23.9089 5.60938 23.7422 4.625 23.7422H2.89844V28.1094Z" fill="white"/>
<path d="M20.5281 34H14.1609V22.5781H20.5281V23.7578H15.4891V27.4375H20.2234V28.6094H15.4891V32.8125H20.5281V34Z" fill="white"/>
<path d="M33.0094 25.9062C33.0094 27.0625 32.6135 27.9531 31.8219 28.5781C31.0354 29.1979 29.9078 29.5078 28.4391 29.5078H27.0953V34H25.7672V22.5781H28.7281C31.5823 22.5781 33.0094 23.6875 33.0094 25.9062ZM27.0953 28.3672H28.2906C29.4677 28.3672 30.3193 28.1771 30.8453 27.7969C31.3714 27.4167 31.6344 26.8073 31.6344 25.9688C31.6344 25.2135 31.387 24.651 30.8922 24.2812C30.3974 23.9115 29.6266 23.7266 28.5797 23.7266H27.0953V28.3672Z" fill="white"/>
<path d="M48.0219 28.2734C48.0219 30.1016 47.5583 31.5391 46.6312 32.5859C45.7094 33.6328 44.4255 34.1562 42.7797 34.1562C41.0974 34.1562 39.7979 33.6432 38.8812 32.6172C37.9698 31.5859 37.5141 30.1328 37.5141 28.2578C37.5141 26.3984 37.9724 24.9583 38.8891 23.9375C39.8057 22.9115 41.1078 22.3984 42.7953 22.3984C44.4359 22.3984 45.7172 22.9193 46.6391 23.9609C47.5609 25.0026 48.0219 26.4401 48.0219 28.2734ZM38.9203 28.2734C38.9203 29.8203 39.2484 30.9948 39.9047 31.7969C40.5661 32.5938 41.5245 32.9922 42.7797 32.9922C44.0453 32.9922 45.001 32.5938 45.6469 31.7969C46.2927 31 46.6156 29.8255 46.6156 28.2734C46.6156 26.737 46.2927 25.5729 45.6469 24.7812C45.0062 23.9844 44.0557 23.5859 42.7953 23.5859C41.5297 23.5859 40.5661 23.987 39.9047 24.7891C39.2484 25.5859 38.9203 26.7474 38.9203 28.2734Z" fill="white"/>
<path d="M54.6047 29.25V34H53.2766V22.5781H56.4094C57.8104 22.5781 58.8443 22.8464 59.5109 23.3828C60.1828 23.9193 60.5187 24.7266 60.5187 25.8047C60.5187 27.3151 59.7531 28.3359 58.2219 28.8672L61.3234 34H59.7531L56.9875 29.25H54.6047ZM54.6047 28.1094H56.425C57.3625 28.1094 58.05 27.9245 58.4875 27.5547C58.925 27.1797 59.1437 26.6198 59.1437 25.875C59.1437 25.1198 58.9198 24.5755 58.4719 24.2422C58.0292 23.9089 57.3156 23.7422 56.3312 23.7422H54.6047V28.1094Z" fill="white"/>
<path d="M69.3828 34H68.0547V23.7578H64.4375V22.5781H73V23.7578H69.3828V34Z" fill="white"/>
<path d="M77.4266 34V22.5781H78.7547V34H77.4266Z" fill="white"/>
<path d="M93.5172 34H92.0016L85.7594 24.4141H85.6969C85.7802 25.5391 85.8219 26.5703 85.8219 27.5078V34H84.5953V22.5781H86.0953L92.3219 32.125H92.3844C92.374 31.9844 92.3505 31.5339 92.3141 30.7734C92.2776 30.0078 92.2646 29.4609 92.275 29.1328V22.5781H93.5172V34Z" fill="white"/>
<path d="M104.381 28.0156H108.264V33.5703C107.66 33.763 107.045 33.9089 106.42 34.0078C105.795 34.1068 105.071 34.1562 104.248 34.1562C102.519 34.1562 101.173 33.6432 100.209 32.6172C99.2458 31.5859 98.7641 30.1432 98.7641 28.2891C98.7641 27.1016 99.001 26.0625 99.475 25.1719C99.9542 24.276 100.642 23.5938 101.537 23.125C102.433 22.651 103.483 22.4141 104.686 22.4141C105.905 22.4141 107.04 22.638 108.092 23.0859L107.577 24.2578C106.545 23.8203 105.553 23.6016 104.6 23.6016C103.209 23.6016 102.123 24.0156 101.342 24.8438C100.561 25.6719 100.17 26.8203 100.17 28.2891C100.17 29.8307 100.545 31 101.295 31.7969C102.051 32.5938 103.157 32.9922 104.616 32.9922C105.407 32.9922 106.181 32.901 106.936 32.7188V29.2031H104.381V28.0156Z" fill="white"/>
</svg>
