<svg width="20" height="20" viewBox="0 0 20 20" fill="none" xmlns="http://www.w3.org/2000/svg">
<path fill-rule="evenodd" clip-rule="evenodd" d="M18.6591 4.98042C17.7649 3.4484 16.5519 2.23538 15.0199 1.3412C13.4876 0.447012 11.8147 0 10.0003 0C8.18606 0 6.51292 0.447012 4.98074 1.3412C3.44856 2.23522 2.23554 3.44824 1.34136 4.98042C0.447012 6.5126 0 8.1859 0 10C0 11.8141 0.447172 13.4872 1.3412 15.0196C2.23538 16.5513 3.4484 17.7646 4.98058 18.6588C6.51276 19.553 8.1859 20 10.0002 20C11.8144 20 13.4877 19.553 15.0197 18.6588C16.5518 17.7648 17.7648 16.5516 18.659 15.0196C19.553 13.4872 20 11.8139 20 10C20 8.1859 19.553 6.51244 18.6591 4.98042ZM11.6671 16.2369C11.6671 16.3585 11.6278 16.4603 11.5498 16.5428C11.4718 16.6253 11.3762 16.6663 11.2632 16.6663H8.76317C8.65033 16.6663 8.55045 16.623 8.46367 16.5363C8.37688 16.4495 8.33357 16.3496 8.33357 16.2369V13.7631C8.33357 13.6503 8.37688 13.5504 8.46367 13.4636C8.55045 13.3768 8.65033 13.3335 8.76317 13.3335H11.2632C11.3762 13.3335 11.4719 13.3747 11.5498 13.457C11.6278 13.5398 11.6671 13.6415 11.6671 13.7631V16.2369ZM11.6409 11.7578C11.6321 11.8446 11.5867 11.9207 11.5044 11.9857C11.4217 12.0508 11.3199 12.0832 11.1985 12.0832H8.78954C8.66791 12.0832 8.56371 12.0508 8.47693 11.9857C8.39015 11.9207 8.34668 11.8446 8.34668 11.7578L8.12533 3.67183C8.12533 3.56747 8.16864 3.48948 8.25542 3.43737C8.34236 3.36801 8.44656 3.33317 8.56803 3.33317H11.4329C11.5546 3.33317 11.6586 3.36785 11.7454 3.43737C11.8322 3.48948 11.8753 3.56763 11.8753 3.67183L11.6409 11.7578Z" fill="#E31C3D"/>
</svg>
