<svg width="20" height="20" viewBox="0 0 20 20" fill="none" xmlns="http://www.w3.org/2000/svg">
<path fill-rule="evenodd" clip-rule="evenodd" d="M18.6591 4.98042C17.7649 3.4484 16.5519 2.23538 15.0199 1.3412C13.4876 0.447012 11.8147 0 10.0003 0C8.18606 0 6.51276 0.447012 4.98074 1.3412C3.44856 2.23522 2.23554 3.44824 1.34136 4.98042C0.447012 6.5126 0 8.1859 0 10C0 11.8143 0.447172 13.4872 1.3412 15.0196C2.23538 16.5514 3.4484 17.7646 4.98058 18.6588C6.51276 19.553 8.1859 20 10.0002 20C11.8144 20 13.4877 19.553 15.0197 18.6588C16.5518 17.7648 17.7648 16.5516 18.659 15.0196C19.553 13.4874 20 11.8141 20 10C20 8.18574 19.553 6.51244 18.6591 4.98042ZM16.4843 8.47659L9.41412 15.5468C9.24919 15.7117 9.04958 15.7944 8.81512 15.7944C8.58946 15.7944 8.39416 15.7117 8.22923 15.5468L3.51554 10.8334C3.3594 10.677 3.28125 10.482 3.28125 10.2475C3.28125 10.0045 3.35924 9.80468 3.51554 9.64838L4.70044 8.47659C4.86553 8.31165 5.06067 8.22919 5.28649 8.22919C5.51232 8.22919 5.70761 8.31165 5.87255 8.47659L8.81528 11.4193L14.1278 6.11974C14.2927 5.95481 14.488 5.87234 14.7137 5.87234C14.9392 5.87234 15.1348 5.95481 15.2996 6.11974L16.4845 7.29169C16.641 7.44784 16.7189 7.64745 16.7189 7.89053C16.7189 8.12499 16.641 8.32028 16.4843 8.47659Z" fill="#12890E"/>
</svg>
