<svg width="210" height="74" viewBox="0 0 210 74" fill="none" xmlns="http://www.w3.org/2000/svg">
<path d="M6.92505 67L4.1499 58.9514H4.09058C4.10376 59.1316 4.11914 59.3777 4.13672 59.6897C4.1543 60.0017 4.16968 60.3357 4.18286 60.6917C4.19604 61.0476 4.20264 61.3882 4.20264 61.7134V67H2.76562V57.3628H4.98706L7.65674 65.0554H7.69629L10.4583 57.3628H12.6731V67H11.1636V61.6343C11.1636 61.3398 11.168 61.0212 11.1768 60.6785C11.1899 60.3357 11.2031 60.0105 11.2163 59.7029C11.2339 59.3953 11.2471 59.1492 11.2559 58.9646H11.2031L8.32251 67H6.92505ZM17.9597 59.5645C18.6101 59.5645 19.1682 59.6985 19.634 59.9666C20.0999 60.2346 20.458 60.6147 20.7085 61.1069C20.959 61.5991 21.0842 62.188 21.0842 62.8735V63.7041H16.2129C16.2305 64.4116 16.4194 64.9565 16.7798 65.3389C17.1445 65.7212 17.6543 65.9124 18.3091 65.9124C18.7749 65.9124 19.1924 65.8684 19.5615 65.7805C19.9351 65.6882 20.3196 65.5542 20.7151 65.3784V66.6375C20.3503 66.8088 19.979 66.9341 19.6011 67.0132C19.2231 67.0923 18.7705 67.1318 18.2432 67.1318C17.5269 67.1318 16.8962 66.9934 16.3513 66.7166C15.8108 66.4353 15.3867 66.0178 15.0791 65.4641C14.7759 64.9104 14.6243 64.2227 14.6243 63.4009C14.6243 62.5835 14.7627 61.8892 15.0396 61.3179C15.3164 60.7466 15.7053 60.3115 16.2063 60.0127C16.7073 59.7139 17.2917 59.5645 17.9597 59.5645ZM17.9597 60.7312C17.4719 60.7312 17.0764 60.8894 16.7732 61.2058C16.4744 61.5222 16.2986 61.9858 16.2458 62.5967H19.5681C19.5637 62.2319 19.5022 61.9089 19.3835 61.6277C19.2693 61.3464 19.0935 61.1267 18.8562 60.9685C18.6233 60.8103 18.3245 60.7312 17.9597 60.7312ZM25.2832 67.1318C24.4131 67.1318 23.7144 66.8154 23.187 66.1826C22.6641 65.5454 22.4026 64.6072 22.4026 63.3679C22.4026 62.1155 22.6685 61.1685 23.2002 60.5269C23.7363 59.8853 24.4417 59.5645 25.3162 59.5645C25.6853 59.5645 26.0083 59.615 26.2852 59.7161C26.562 59.8127 26.7993 59.9446 26.9971 60.1116C27.1992 60.2786 27.3706 60.4653 27.5112 60.6719H27.5837C27.5618 60.5356 27.5354 60.3401 27.5046 60.0852C27.4783 59.8259 27.4651 59.5864 27.4651 59.3667V56.7432H29.0208V67H27.8079L27.531 66.0046H27.4651C27.3333 66.2156 27.1663 66.4067 26.9641 66.5781C26.7664 66.7451 26.5291 66.8792 26.2522 66.9802C25.9797 67.0813 25.6567 67.1318 25.2832 67.1318ZM25.7183 65.8728C26.3818 65.8728 26.8499 65.6816 27.1223 65.2993C27.3948 64.917 27.5354 64.3435 27.5442 63.5789V63.3745C27.5442 62.5571 27.4124 61.9309 27.1487 61.4958C26.885 61.0564 26.4038 60.8367 25.7051 60.8367C25.147 60.8367 24.7207 61.063 24.4263 61.5156C24.1362 61.9639 23.9912 62.5901 23.9912 63.3943C23.9912 64.1985 24.1362 64.8137 24.4263 65.24C24.7207 65.6619 25.1514 65.8728 25.7183 65.8728ZM32.7913 59.7029V67H31.2422V59.7029H32.7913ZM32.0266 56.908C32.2639 56.908 32.4683 56.9717 32.6396 57.0991C32.8154 57.2266 32.9033 57.4463 32.9033 57.7583C32.9033 58.0659 32.8154 58.2856 32.6396 58.4175C32.4683 58.5449 32.2639 58.6086 32.0266 58.6086C31.7805 58.6086 31.5718 58.5449 31.4004 58.4175C31.2334 58.2856 31.1499 58.0659 31.1499 57.7583C31.1499 57.4463 31.2334 57.2266 31.4004 57.0991C31.5718 56.9717 31.7805 56.908 32.0266 56.908ZM37.9526 67.1318C37.2627 67.1318 36.665 66.9978 36.1597 66.7297C35.6543 66.4617 35.2654 66.0508 34.9929 65.4971C34.7205 64.9434 34.5842 64.2402 34.5842 63.3877C34.5842 62.5 34.7336 61.7749 35.0325 61.2124C35.3313 60.6499 35.7444 60.2346 36.2717 59.9666C36.8035 59.6985 37.4121 59.5645 38.0977 59.5645C38.5327 59.5645 38.926 59.6084 39.2776 59.6963C39.6335 59.7798 39.9346 59.8831 40.1807 60.0061L39.7192 61.2454C39.4512 61.1355 39.1765 61.0432 38.8953 60.9685C38.614 60.8938 38.3438 60.8564 38.0845 60.8564C37.6582 60.8564 37.3022 60.9509 37.0166 61.1399C36.7354 61.3289 36.5244 61.6101 36.3838 61.9836C36.2476 62.3572 36.1794 62.8208 36.1794 63.3745C36.1794 63.9106 36.2498 64.3633 36.3904 64.7324C36.531 65.0972 36.7397 65.374 37.0166 65.563C37.2935 65.7476 37.634 65.8398 38.0383 65.8398C38.4382 65.8398 38.7964 65.7915 39.1128 65.6948C39.4292 65.5981 39.728 65.4729 40.0093 65.3191V66.6638C39.7324 66.822 39.4358 66.9385 39.1194 67.0132C38.803 67.0923 38.4141 67.1318 37.9526 67.1318ZM44.584 59.5645C45.5068 59.5645 46.2034 59.7688 46.6736 60.1775C47.1482 60.5862 47.3855 61.2234 47.3855 62.0891V67H46.2847L45.988 65.9651H45.9353C45.7288 66.2288 45.5156 66.4463 45.2959 66.6177C45.0762 66.7891 44.8213 66.9165 44.5312 67C44.2456 67.0879 43.8962 67.1318 43.4832 67.1318C43.0481 67.1318 42.6592 67.0527 42.3164 66.8945C41.9736 66.7319 41.7034 66.4858 41.5056 66.1562C41.3079 65.8267 41.209 65.4092 41.209 64.9038C41.209 64.1523 41.488 63.5876 42.0461 63.2097C42.6086 62.8318 43.4568 62.623 44.5906 62.5835L45.8562 62.5374V62.155C45.8562 61.6497 45.7375 61.2893 45.5002 61.074C45.2673 60.8586 44.9377 60.751 44.5115 60.751C44.1467 60.751 43.793 60.8037 43.4502 60.9092C43.1074 61.0146 42.7734 61.1443 42.4482 61.2981L41.9473 60.2039C42.3032 60.0149 42.7075 59.8611 43.1602 59.7424C43.6172 59.6238 44.0918 59.5645 44.584 59.5645ZM45.8496 63.5129L44.907 63.5459C44.1335 63.5723 43.5908 63.7041 43.2788 63.9414C42.9668 64.1787 42.8108 64.5039 42.8108 64.917C42.8108 65.2773 42.9185 65.541 43.1338 65.708C43.3491 65.8706 43.6326 65.9519 43.9841 65.9519C44.5203 65.9519 44.9641 65.8003 45.3157 65.4971C45.6716 65.1895 45.8496 64.739 45.8496 64.1458V63.5129ZM51.1033 59.7029V67H49.5542V59.7029H51.1033ZM50.3386 56.908C50.5759 56.908 50.7803 56.9717 50.9517 57.0991C51.1274 57.2266 51.2153 57.4463 51.2153 57.7583C51.2153 58.0659 51.1274 58.2856 50.9517 58.4175C50.7803 58.5449 50.5759 58.6086 50.3386 58.6086C50.0925 58.6086 49.8838 58.5449 49.7124 58.4175C49.5454 58.2856 49.4619 58.0659 49.4619 57.7583C49.4619 57.4463 49.5454 57.2266 49.7124 57.0991C49.8838 56.9717 50.0925 56.908 50.3386 56.908ZM55.7769 67.1318C54.9067 67.1318 54.208 66.8154 53.6807 66.1826C53.1577 65.5454 52.8962 64.6072 52.8962 63.3679C52.8962 62.1155 53.1621 61.1685 53.6938 60.5269C54.23 59.8853 54.9353 59.5645 55.8098 59.5645C56.179 59.5645 56.502 59.615 56.7788 59.7161C57.0557 59.8127 57.293 59.9446 57.4907 60.1116C57.6929 60.2786 57.8643 60.4653 58.0049 60.6719H58.0774C58.0554 60.5356 58.0291 60.3401 57.9983 60.0852C57.9719 59.8259 57.9587 59.5864 57.9587 59.3667V56.7432H59.5144V67H58.3015L58.0247 66.0046H57.9587C57.8269 66.2156 57.6599 66.4067 57.4578 66.5781C57.26 66.7451 57.0227 66.8792 56.7458 66.9802C56.4734 67.0813 56.1504 67.1318 55.7769 67.1318ZM56.2119 65.8728C56.8755 65.8728 57.3435 65.6816 57.616 65.2993C57.8884 64.917 58.0291 64.3435 58.0378 63.5789V63.3745C58.0378 62.5571 57.906 61.9309 57.6423 61.4958C57.3787 61.0564 56.8975 60.8367 56.1987 60.8367C55.6406 60.8367 55.2144 61.063 54.9199 61.5156C54.6299 61.9639 54.4849 62.5901 54.4849 63.3943C54.4849 64.1985 54.6299 64.8137 54.9199 65.24C55.2144 65.6619 55.645 65.8728 56.2119 65.8728ZM73.2253 62.0891C73.2253 63.1746 73.0232 64.082 72.6189 64.8115C72.2146 65.5366 71.6279 66.0837 70.8589 66.4529C70.0898 66.8176 69.1626 67 68.0771 67H65.4009V57.3628H68.3672C69.3647 57.3628 70.2261 57.543 70.9512 57.9033C71.6763 58.2593 72.2366 58.7888 72.6321 59.4919C73.0276 60.1907 73.2253 61.0564 73.2253 62.0891ZM71.5774 62.1353C71.5774 61.3442 71.4521 60.6938 71.2017 60.1841C70.9556 59.6743 70.5908 59.2964 70.1074 59.0503C69.6284 58.7998 69.0374 58.6746 68.3342 58.6746H66.9829V65.675H68.1035C69.2681 65.675 70.1382 65.3784 70.7139 64.7852C71.2896 64.1919 71.5774 63.3086 71.5774 62.1353ZM78.0044 59.5645C78.9272 59.5645 79.6238 59.7688 80.094 60.1775C80.5686 60.5862 80.8059 61.2234 80.8059 62.0891V67H79.7051L79.4084 65.9651H79.3557C79.1492 66.2288 78.936 66.4463 78.7163 66.6177C78.4966 66.7891 78.2417 66.9165 77.9517 67C77.666 67.0879 77.3167 67.1318 76.9036 67.1318C76.4685 67.1318 76.0796 67.0527 75.7368 66.8945C75.394 66.7319 75.1238 66.4858 74.926 66.1562C74.7283 65.8267 74.6294 65.4092 74.6294 64.9038C74.6294 64.1523 74.9084 63.5876 75.4666 63.2097C76.0291 62.8318 76.8772 62.623 78.011 62.5835L79.2766 62.5374V62.155C79.2766 61.6497 79.158 61.2893 78.9207 61.074C78.6877 60.8586 78.3582 60.751 77.9319 60.751C77.5671 60.751 77.2134 60.8037 76.8706 60.9092C76.5278 61.0146 76.1938 61.1443 75.8687 61.2981L75.3677 60.2039C75.7236 60.0149 76.1279 59.8611 76.5806 59.7424C77.0376 59.6238 77.5122 59.5645 78.0044 59.5645ZM79.27 63.5129L78.3274 63.5459C77.554 63.5723 77.0112 63.7041 76.6992 63.9414C76.3872 64.1787 76.2312 64.5039 76.2312 64.917C76.2312 65.2773 76.3389 65.541 76.5542 65.708C76.7695 65.8706 77.053 65.9519 77.4045 65.9519C77.9407 65.9519 78.3845 65.8003 78.7361 65.4971C79.092 65.1895 79.27 64.739 79.27 64.1458V63.5129ZM85.6904 65.8794C85.8926 65.8794 86.0925 65.8618 86.2903 65.8267C86.488 65.7871 86.6682 65.741 86.8308 65.6882V66.8616C86.6594 66.9363 86.4375 67 86.165 67.0527C85.8926 67.1055 85.6091 67.1318 85.3147 67.1318C84.9016 67.1318 84.5303 67.0637 84.2007 66.9275C83.8711 66.7869 83.6096 66.5474 83.4163 66.209C83.2229 65.8706 83.1262 65.4026 83.1262 64.8049V60.8828H82.1309V60.1907L83.1987 59.6436L83.7063 58.0813H84.6819V59.7029H86.7715V60.8828H84.6819V64.7852C84.6819 65.1543 84.7742 65.429 84.9587 65.6091C85.1433 65.7893 85.3872 65.8794 85.6904 65.8794ZM91.1748 59.5645C92.0977 59.5645 92.7942 59.7688 93.2644 60.1775C93.739 60.5862 93.9763 61.2234 93.9763 62.0891V67H92.8755L92.5789 65.9651H92.5261C92.3196 66.2288 92.1064 66.4463 91.8867 66.6177C91.667 66.7891 91.4121 66.9165 91.1221 67C90.8364 67.0879 90.4871 67.1318 90.074 67.1318C89.6389 67.1318 89.25 67.0527 88.9072 66.8945C88.5645 66.7319 88.2942 66.4858 88.0964 66.1562C87.8987 65.8267 87.7998 65.4092 87.7998 64.9038C87.7998 64.1523 88.0789 63.5876 88.637 63.2097C89.1995 62.8318 90.0476 62.623 91.1814 62.5835L92.447 62.5374V62.155C92.447 61.6497 92.3284 61.2893 92.0911 61.074C91.8582 60.8586 91.5286 60.751 91.1023 60.751C90.7375 60.751 90.3838 60.8037 90.041 60.9092C89.6982 61.0146 89.3643 61.1443 89.0391 61.2981L88.5381 60.2039C88.894 60.0149 89.2983 59.8611 89.751 59.7424C90.208 59.6238 90.6826 59.5645 91.1748 59.5645ZM92.4404 63.5129L91.4978 63.5459C90.7244 63.5723 90.1816 63.7041 89.8696 63.9414C89.5576 64.1787 89.4016 64.5039 89.4016 64.917C89.4016 65.2773 89.5093 65.541 89.7246 65.708C89.9399 65.8706 90.2234 65.9519 90.575 65.9519C91.1111 65.9519 91.5549 65.8003 91.9065 65.4971C92.2625 65.1895 92.4404 64.739 92.4404 64.1458V63.5129ZM103.917 58.5691C103.455 58.5691 103.042 58.6526 102.677 58.8196C102.317 58.9866 102.012 59.2283 101.761 59.5447C101.511 59.8567 101.32 60.2368 101.188 60.6851C101.056 61.1289 100.99 61.6299 100.99 62.188C100.99 62.9351 101.095 63.5789 101.306 64.1194C101.517 64.6555 101.838 65.0686 102.269 65.3586C102.699 65.6443 103.244 65.7871 103.904 65.7871C104.312 65.7871 104.71 65.7476 105.097 65.6685C105.483 65.5894 105.883 65.4817 106.296 65.3455V66.6902C105.905 66.844 105.51 66.9561 105.11 67.0264C104.71 67.0967 104.249 67.1318 103.726 67.1318C102.741 67.1318 101.924 66.9275 101.273 66.5188C100.627 66.1101 100.144 65.5344 99.8232 64.7917C99.5068 64.0491 99.3486 63.179 99.3486 62.1814C99.3486 61.4519 99.4497 60.7839 99.6519 60.1775C99.854 59.571 100.148 59.0481 100.535 58.6086C100.922 58.1648 101.399 57.8242 101.966 57.5869C102.537 57.3452 103.189 57.2244 103.923 57.2244C104.407 57.2244 104.881 57.2793 105.347 57.3892C105.817 57.4946 106.252 57.6462 106.652 57.844L106.099 59.1492C105.765 58.991 105.415 58.8547 105.051 58.7405C104.686 58.6262 104.308 58.5691 103.917 58.5691ZM114.668 63.335C114.668 63.9414 114.589 64.4797 114.431 64.95C114.272 65.4202 114.042 65.8179 113.739 66.1431C113.435 66.4639 113.071 66.71 112.644 66.8813C112.218 67.0483 111.737 67.1318 111.201 67.1318C110.7 67.1318 110.24 67.0483 109.823 66.8813C109.406 66.71 109.043 66.4639 108.735 66.1431C108.432 65.8179 108.197 65.4202 108.03 64.95C107.863 64.4797 107.78 63.9414 107.78 63.335C107.78 62.5308 107.918 61.8496 108.195 61.2915C108.476 60.729 108.876 60.3005 109.395 60.0061C109.913 59.7117 110.531 59.5645 111.247 59.5645C111.919 59.5645 112.512 59.7117 113.027 60.0061C113.541 60.3005 113.943 60.729 114.233 61.2915C114.523 61.854 114.668 62.5352 114.668 63.335ZM109.375 63.335C109.375 63.8667 109.438 64.3215 109.566 64.6995C109.698 65.0774 109.9 65.3674 110.172 65.5696C110.445 65.7673 110.796 65.8662 111.227 65.8662C111.658 65.8662 112.009 65.7673 112.282 65.5696C112.554 65.3674 112.754 65.0774 112.882 64.6995C113.009 64.3215 113.073 63.8667 113.073 63.335C113.073 62.8032 113.009 62.3528 112.882 61.9836C112.754 61.6101 112.554 61.3267 112.282 61.1333C112.009 60.9355 111.656 60.8367 111.22 60.8367C110.579 60.8367 110.111 61.052 109.816 61.4827C109.522 61.9133 109.375 62.5308 109.375 63.335ZM118.003 67H116.448V56.7432H118.003V67ZM121.774 67H120.218V56.7432H121.774V67ZM126.896 59.5645C127.546 59.5645 128.104 59.6985 128.57 59.9666C129.036 60.2346 129.394 60.6147 129.645 61.1069C129.895 61.5991 130.02 62.188 130.02 62.8735V63.7041H125.149C125.167 64.4116 125.355 64.9565 125.716 65.3389C126.081 65.7212 126.59 65.9124 127.245 65.9124C127.711 65.9124 128.128 65.8684 128.498 65.7805C128.871 65.6882 129.256 65.5542 129.651 65.3784V66.6375C129.286 66.8088 128.915 66.9341 128.537 67.0132C128.159 67.0923 127.707 67.1318 127.179 67.1318C126.463 67.1318 125.832 66.9934 125.287 66.7166C124.747 66.4353 124.323 66.0178 124.015 65.4641C123.712 64.9104 123.56 64.2227 123.56 63.4009C123.56 62.5835 123.699 61.8892 123.976 61.3179C124.252 60.7466 124.641 60.3115 125.142 60.0127C125.643 59.7139 126.228 59.5645 126.896 59.5645ZM126.896 60.7312C126.408 60.7312 126.012 60.8894 125.709 61.2058C125.41 61.5222 125.235 61.9858 125.182 62.5967H128.504C128.5 62.2319 128.438 61.9089 128.32 61.6277C128.205 61.3464 128.03 61.1267 127.792 60.9685C127.559 60.8103 127.26 60.7312 126.896 60.7312ZM134.707 67.1318C134.017 67.1318 133.419 66.9978 132.914 66.7297C132.409 66.4617 132.02 66.0508 131.747 65.4971C131.475 64.9434 131.339 64.2402 131.339 63.3877C131.339 62.5 131.488 61.7749 131.787 61.2124C132.086 60.6499 132.499 60.2346 133.026 59.9666C133.558 59.6985 134.167 59.5645 134.852 59.5645C135.287 59.5645 135.68 59.6084 136.032 59.6963C136.388 59.7798 136.689 59.8831 136.935 60.0061L136.474 61.2454C136.206 61.1355 135.931 61.0432 135.65 60.9685C135.368 60.8938 135.098 60.8564 134.839 60.8564C134.413 60.8564 134.057 60.9509 133.771 61.1399C133.49 61.3289 133.279 61.6101 133.138 61.9836C133.002 62.3572 132.934 62.8208 132.934 63.3745C132.934 63.9106 133.004 64.3633 133.145 64.7324C133.285 65.0972 133.494 65.374 133.771 65.563C134.048 65.7476 134.388 65.8398 134.793 65.8398C135.193 65.8398 135.551 65.7915 135.867 65.6948C136.184 65.5981 136.482 65.4729 136.764 65.3191V66.6638C136.487 66.822 136.19 66.9385 135.874 67.0132C135.557 67.0923 135.168 67.1318 134.707 67.1318ZM141.193 65.8794C141.396 65.8794 141.595 65.8618 141.793 65.8267C141.991 65.7871 142.171 65.741 142.334 65.6882V66.8616C142.162 66.9363 141.94 67 141.668 67.0527C141.396 67.1055 141.112 67.1318 140.818 67.1318C140.405 67.1318 140.033 67.0637 139.704 66.9275C139.374 66.7869 139.113 66.5474 138.919 66.209C138.726 65.8706 138.629 65.4026 138.629 64.8049V60.8828H137.634V60.1907L138.702 59.6436L139.209 58.0813H140.185V59.7029H142.274V60.8828H140.185V64.7852C140.185 65.1543 140.277 65.429 140.462 65.6091C140.646 65.7893 140.89 65.8794 141.193 65.8794ZM145.366 59.7029V67H143.817V59.7029H145.366ZM144.601 56.908C144.839 56.908 145.043 56.9717 145.214 57.0991C145.39 57.2266 145.478 57.4463 145.478 57.7583C145.478 58.0659 145.39 58.2856 145.214 58.4175C145.043 58.5449 144.839 58.6086 144.601 58.6086C144.355 58.6086 144.146 58.5449 143.975 58.4175C143.808 58.2856 143.725 58.0659 143.725 57.7583C143.725 57.4463 143.808 57.2266 143.975 57.0991C144.146 56.9717 144.355 56.908 144.601 56.908ZM154.047 63.335C154.047 63.9414 153.968 64.4797 153.81 64.95C153.652 65.4202 153.421 65.8179 153.118 66.1431C152.815 66.4639 152.45 66.71 152.024 66.8813C151.597 67.0483 151.116 67.1318 150.58 67.1318C150.079 67.1318 149.62 67.0483 149.202 66.8813C148.785 66.71 148.422 66.4639 148.115 66.1431C147.812 65.8179 147.576 65.4202 147.409 64.95C147.242 64.4797 147.159 63.9414 147.159 63.335C147.159 62.5308 147.297 61.8496 147.574 61.2915C147.855 60.729 148.255 60.3005 148.774 60.0061C149.292 59.7117 149.91 59.5645 150.626 59.5645C151.299 59.5645 151.892 59.7117 152.406 60.0061C152.92 60.3005 153.322 60.729 153.612 61.2915C153.902 61.854 154.047 62.5352 154.047 63.335ZM148.754 63.335C148.754 63.8667 148.818 64.3215 148.945 64.6995C149.077 65.0774 149.279 65.3674 149.552 65.5696C149.824 65.7673 150.176 65.8662 150.606 65.8662C151.037 65.8662 151.389 65.7673 151.661 65.5696C151.934 65.3674 152.134 65.0774 152.261 64.6995C152.388 64.3215 152.452 63.8667 152.452 63.335C152.452 62.8032 152.388 62.3528 152.261 61.9836C152.134 61.6101 151.934 61.3267 151.661 61.1333C151.389 60.9355 151.035 60.8367 150.6 60.8367C149.958 60.8367 149.49 61.052 149.196 61.4827C148.901 61.9133 148.754 62.5308 148.754 63.335ZM159.631 59.5645C160.452 59.5645 161.092 59.7776 161.549 60.2039C162.01 60.6257 162.241 61.3047 162.241 62.2407V67H160.692V62.5308C160.692 61.9639 160.575 61.5398 160.343 61.2585C160.11 60.9729 159.749 60.8301 159.261 60.8301C158.554 60.8301 158.062 61.0476 157.785 61.4827C157.512 61.9177 157.376 62.5483 157.376 63.3745V67H155.827V59.7029H157.033L157.251 60.6917H157.337C157.495 60.4368 157.69 60.228 157.923 60.0654C158.161 59.8984 158.424 59.7732 158.714 59.6897C159.009 59.6062 159.314 59.5645 159.631 59.5645ZM171.417 67H169.828V58.7075H167.007V57.3628H174.231V58.7075H171.417V67ZM182.01 63.335C182.01 63.9414 181.931 64.4797 181.772 64.95C181.614 65.4202 181.384 65.8179 181.08 66.1431C180.777 66.4639 180.412 66.71 179.986 66.8813C179.56 67.0483 179.079 67.1318 178.542 67.1318C178.042 67.1318 177.582 67.0483 177.165 66.8813C176.747 66.71 176.385 66.4639 176.077 66.1431C175.774 65.8179 175.539 65.4202 175.372 64.95C175.205 64.4797 175.121 63.9414 175.121 63.335C175.121 62.5308 175.26 61.8496 175.537 61.2915C175.818 60.729 176.218 60.3005 176.736 60.0061C177.255 59.7117 177.872 59.5645 178.589 59.5645C179.261 59.5645 179.854 59.7117 180.368 60.0061C180.883 60.3005 181.285 60.729 181.575 61.2915C181.865 61.854 182.01 62.5352 182.01 63.335ZM176.717 63.335C176.717 63.8667 176.78 64.3215 176.908 64.6995C177.04 65.0774 177.242 65.3674 177.514 65.5696C177.787 65.7673 178.138 65.8662 178.569 65.8662C179 65.8662 179.351 65.7673 179.624 65.5696C179.896 65.3674 180.096 65.0774 180.223 64.6995C180.351 64.3215 180.415 63.8667 180.415 63.335C180.415 62.8032 180.351 62.3528 180.223 61.9836C180.096 61.6101 179.896 61.3267 179.624 61.1333C179.351 60.9355 178.997 60.8367 178.562 60.8367C177.921 60.8367 177.453 61.052 177.158 61.4827C176.864 61.9133 176.717 62.5308 176.717 63.335ZM190.25 63.335C190.25 63.9414 190.17 64.4797 190.012 64.95C189.854 65.4202 189.623 65.8179 189.32 66.1431C189.017 66.4639 188.652 66.71 188.226 66.8813C187.8 67.0483 187.318 67.1318 186.782 67.1318C186.281 67.1318 185.822 67.0483 185.405 66.8813C184.987 66.71 184.625 66.4639 184.317 66.1431C184.014 65.8179 183.779 65.4202 183.612 64.95C183.445 64.4797 183.361 63.9414 183.361 63.335C183.361 62.5308 183.5 61.8496 183.776 61.2915C184.058 60.729 184.458 60.3005 184.976 60.0061C185.495 59.7117 186.112 59.5645 186.828 59.5645C187.501 59.5645 188.094 59.7117 188.608 60.0061C189.122 60.3005 189.524 60.729 189.814 61.2915C190.104 61.854 190.25 62.5352 190.25 63.335ZM184.956 63.335C184.956 63.8667 185.02 64.3215 185.147 64.6995C185.279 65.0774 185.481 65.3674 185.754 65.5696C186.026 65.7673 186.378 65.8662 186.809 65.8662C187.239 65.8662 187.591 65.7673 187.863 65.5696C188.136 65.3674 188.336 65.0774 188.463 64.6995C188.591 64.3215 188.654 63.8667 188.654 63.335C188.654 62.8032 188.591 62.3528 188.463 61.9836C188.336 61.6101 188.136 61.3267 187.863 61.1333C187.591 60.9355 187.237 60.8367 186.802 60.8367C186.16 60.8367 185.692 61.052 185.398 61.4827C185.104 61.9133 184.956 62.5308 184.956 63.335ZM193.585 67H192.029V56.7432H193.585V67Z" fill="#5B616B"/>
<path d="M12.68 5.98H12.6L11.52 8.2L8.66 13.48L5.8 8.2L4.72 5.98H4.64V16H2.14V2.04H5.12L8.7 8.86H8.78L12.32 2.04H15.18V16H12.68V5.98ZM19.6681 2.04H24.7481C25.6548 2.04 26.4748 2.18667 27.2081 2.48C27.9548 2.77333 28.5881 3.21333 29.1081 3.8C29.6415 4.37333 30.0481 5.1 30.3281 5.98C30.6215 6.84667 30.7681 7.86 30.7681 9.02C30.7681 10.18 30.6215 11.2 30.3281 12.08C30.0481 12.9467 29.6415 13.6733 29.1081 14.26C28.5881 14.8333 27.9548 15.2667 27.2081 15.56C26.4748 15.8533 25.6548 16 24.7481 16H19.6681V2.04ZM24.7481 13.66C25.7348 13.66 26.5148 13.3733 27.0881 12.8C27.6748 12.2133 27.9681 11.32 27.9681 10.12V7.92C27.9681 6.72 27.6748 5.83333 27.0881 5.26C26.5148 4.67333 25.7348 4.38 24.7481 4.38H22.3081V13.66H24.7481ZM40.0772 16.24C39.1572 16.24 38.3239 16.0933 37.5772 15.8C36.8439 15.4933 36.2105 15.04 35.6772 14.44C35.1572 13.84 34.7572 13.1 34.4772 12.22C34.1972 11.3267 34.0572 10.2933 34.0572 9.12C34.0572 7.94667 34.1972 6.90667 34.4772 6C34.7572 5.08 35.1572 4.31333 35.6772 3.7C36.2105 3.07333 36.8439 2.6 37.5772 2.28C38.3239 1.96 39.1572 1.8 40.0772 1.8C41.3305 1.8 42.3705 2.06667 43.1972 2.6C44.0239 3.13333 44.6839 3.94 45.1772 5.02L42.9172 6.22C42.7172 5.59333 42.3905 5.09333 41.9372 4.72C41.4839 4.33333 40.8639 4.14 40.0772 4.14C39.0905 4.14 38.3039 4.47333 37.7172 5.14C37.1439 5.80667 36.8572 6.74 36.8572 7.94V10.14C36.8572 11.3533 37.1439 12.2867 37.7172 12.94C38.3039 13.58 39.0905 13.9 40.0772 13.9C40.8639 13.9 41.5039 13.6867 41.9972 13.26C42.5039 12.8333 42.8705 12.3067 43.0972 11.68L45.2372 12.94C44.7305 13.98 44.0572 14.7933 43.2172 15.38C42.3772 15.9533 41.3305 16.24 40.0772 16.24ZM54.1692 4.38V16H51.5292V4.38H47.5692V2.04H58.1292V4.38H54.1692ZM10.076 37.204H8.33C7.502 37.204 6.89 37 6.494 36.592C6.11 36.196 5.918 35.632 5.918 34.9V34.144C4.55 33.94 3.458 33.292 2.642 32.2C1.838 31.108 1.436 29.614 1.436 27.718C1.436 26.662 1.568 25.732 1.832 24.928C2.096 24.112 2.462 23.428 2.93 22.876C3.41 22.324 3.986 21.91 4.658 21.634C5.33 21.358 6.08 21.22 6.908 21.22C7.736 21.22 8.486 21.358 9.158 21.634C9.83 21.91 10.406 22.324 10.886 22.876C11.366 23.428 11.732 24.112 11.984 24.928C12.248 25.732 12.38 26.662 12.38 27.718C12.38 29.578 12.002 31.042 11.246 32.11C10.49 33.178 9.458 33.838 8.15 34.09V35.26H10.076V37.204ZM6.908 32.11C7.808 32.11 8.522 31.81 9.05 31.21C9.59 30.61 9.86 29.77 9.86 28.69V26.746C9.86 25.666 9.59 24.826 9.05 24.226C8.522 23.626 7.808 23.326 6.908 23.326C6.008 23.326 5.288 23.626 4.748 24.226C4.22 24.826 3.956 25.666 3.956 26.746V28.69C3.956 29.77 4.22 30.61 4.748 31.21C5.288 31.81 6.008 32.11 6.908 32.11ZM33.6365 24.982H33.5645L32.5925 26.98L30.0185 31.732L27.4445 26.98L26.4725 24.982H26.4005V34H24.1505V21.436H26.8325L30.0545 27.574H30.1265L33.3125 21.436H35.8865V34H33.6365V24.982ZM50.5818 34H48.2058V21.436H53.8758C54.4518 21.436 54.9678 21.526 55.4238 21.706C55.8798 21.886 56.2638 22.15 56.5758 22.498C56.8998 22.834 57.1458 23.242 57.3138 23.722C57.4938 24.202 57.5838 24.736 57.5838 25.324C57.5838 26.188 57.3858 26.932 56.9898 27.556C56.6058 28.18 56.0238 28.624 55.2438 28.888L57.8178 34H55.1718L52.8318 29.158H50.5818V34ZM53.6418 27.16C54.0978 27.16 54.4578 27.04 54.7218 26.8C54.9858 26.548 55.1178 26.194 55.1178 25.738V24.91C55.1178 24.454 54.9858 24.106 54.7218 23.866C54.4578 23.626 54.0978 23.506 53.6418 23.506H50.5818V27.16H53.6418Z" fill="#5B616B"/>
<path d="M91.1406 9.27344C91.1406 10.1641 91.026 10.9766 90.7969 11.7109C90.5677 12.4453 90.224 13.0729 89.7656 13.5938C89.3073 14.1146 88.7292 14.5078 88.0312 14.7734L90.75 17.7188H88.25L86.1016 15.1484C86.0495 15.1484 85.9974 15.1484 85.9453 15.1484C85.8984 15.1536 85.8516 15.1562 85.8047 15.1562C84.8932 15.1562 84.1016 15.0156 83.4297 14.7344C82.763 14.4531 82.2083 14.0521 81.7656 13.5312C81.3281 13.0104 81 12.388 80.7812 11.6641C80.5625 10.9401 80.4531 10.138 80.4531 9.25781C80.4531 8.08073 80.6458 7.05469 81.0312 6.17969C81.4219 5.29948 82.013 4.61719 82.8047 4.13281C83.6016 3.64323 84.6068 3.39844 85.8203 3.39844C87.0078 3.39844 87.9948 3.64062 88.7812 4.125C89.5677 4.60938 90.1562 5.29167 90.5469 6.17188C90.9427 7.04688 91.1406 8.08073 91.1406 9.27344ZM82.4219 9.27344C82.4219 10.1536 82.5417 10.9167 82.7812 11.5625C83.0208 12.2031 83.388 12.6979 83.8828 13.0469C84.3828 13.3906 85.0234 13.5625 85.8047 13.5625C86.5911 13.5625 87.2318 13.3906 87.7266 13.0469C88.2214 12.6979 88.5859 12.2031 88.8203 11.5625C89.0547 10.9167 89.1719 10.1536 89.1719 9.27344C89.1719 7.9349 88.9036 6.88802 88.3672 6.13281C87.8359 5.3724 86.987 4.99219 85.8203 4.99219C85.0391 4.99219 84.3958 5.16406 83.8906 5.50781C83.3906 5.85156 83.0208 6.34375 82.7812 6.98438C82.5417 7.61979 82.4219 8.38281 82.4219 9.27344ZM101.105 6.35156V15H99.66L99.41 13.8359H99.3084C99.1261 14.1328 98.8944 14.3802 98.6131 14.5781C98.3319 14.7708 98.0194 14.9141 97.6756 15.0078C97.3319 15.1068 96.9699 15.1562 96.5897 15.1562C95.9386 15.1562 95.3814 15.0469 94.9178 14.8281C94.4595 14.6042 94.1079 14.2604 93.8631 13.7969C93.6183 13.3333 93.4959 12.7344 93.4959 12V6.35156H95.3397V11.6562C95.3397 12.3281 95.4751 12.8307 95.7459 13.1641C96.022 13.4974 96.4491 13.6641 97.0272 13.6641C97.5845 13.6641 98.0272 13.5495 98.3553 13.3203C98.6834 13.0911 98.9152 12.7526 99.0506 12.3047C99.1912 11.8568 99.2616 11.3073 99.2616 10.6562V6.35156H101.105ZM107.289 6.1875C108.382 6.1875 109.208 6.42969 109.765 6.91406C110.328 7.39844 110.609 8.15365 110.609 9.17969V15H109.304L108.953 13.7734H108.89C108.646 14.0859 108.393 14.3438 108.132 14.5469C107.872 14.75 107.57 14.901 107.226 15C106.888 15.1042 106.474 15.1562 105.984 15.1562C105.468 15.1562 105.007 15.0625 104.601 14.875C104.195 14.6823 103.875 14.3906 103.64 14C103.406 13.6094 103.289 13.1146 103.289 12.5156C103.289 11.625 103.619 10.9557 104.281 10.5078C104.948 10.0599 105.953 9.8125 107.297 9.76562L108.797 9.71094V9.25781C108.797 8.65885 108.656 8.23177 108.375 7.97656C108.099 7.72135 107.708 7.59375 107.203 7.59375C106.771 7.59375 106.351 7.65625 105.945 7.78125C105.539 7.90625 105.143 8.0599 104.757 8.24219L104.164 6.94531C104.586 6.72135 105.065 6.53906 105.601 6.39844C106.143 6.25781 106.705 6.1875 107.289 6.1875ZM108.789 10.8672L107.672 10.9062C106.755 10.9375 106.112 11.0938 105.742 11.375C105.372 11.6562 105.187 12.0417 105.187 12.5312C105.187 12.9583 105.315 13.2708 105.57 13.4688C105.825 13.6615 106.161 13.7578 106.578 13.7578C107.213 13.7578 107.739 13.5781 108.156 13.2188C108.578 12.8542 108.789 12.3203 108.789 11.6172V10.8672ZM115.183 15H113.339V2.84375H115.183V15ZM119.804 6.35156V15H117.968V6.35156H119.804ZM118.898 3.03906C119.179 3.03906 119.421 3.11458 119.624 3.26562C119.833 3.41667 119.937 3.67708 119.937 4.04688C119.937 4.41146 119.833 4.67188 119.624 4.82812C119.421 4.97917 119.179 5.05469 118.898 5.05469C118.606 5.05469 118.359 4.97917 118.156 4.82812C117.958 4.67188 117.859 4.41146 117.859 4.04688C117.859 3.67708 117.958 3.41667 118.156 3.26562C118.359 3.11458 118.606 3.03906 118.898 3.03906ZM125.816 13.6719C126.055 13.6719 126.292 13.651 126.527 13.6094C126.761 13.5625 126.974 13.5078 127.167 13.4453V14.8359C126.964 14.9245 126.701 15 126.378 15.0625C126.055 15.125 125.719 15.1562 125.37 15.1562C124.881 15.1562 124.441 15.0755 124.05 14.9141C123.659 14.7474 123.349 14.4635 123.12 14.0625C122.891 13.6615 122.777 13.1068 122.777 12.3984V7.75H121.597V6.92969L122.862 6.28125L123.464 4.42969H124.62V6.35156H127.097V7.75H124.62V12.375C124.62 12.8125 124.73 13.138 124.948 13.3516C125.167 13.5651 125.456 13.6719 125.816 13.6719ZM127.78 6.35156H129.78L131.554 11.2891C131.632 11.513 131.702 11.7344 131.765 11.9531C131.832 12.1667 131.89 12.3776 131.937 12.5859C131.989 12.7943 132.03 13.0026 132.062 13.2109H132.108C132.161 12.9401 132.233 12.638 132.327 12.3047C132.426 11.9661 132.536 11.6276 132.655 11.2891L134.358 6.35156H136.335L132.624 16.1875C132.411 16.75 132.147 17.2292 131.835 17.625C131.528 18.026 131.163 18.3281 130.741 18.5312C130.319 18.7396 129.838 18.8438 129.296 18.8438C129.036 18.8438 128.809 18.8281 128.616 18.7969C128.424 18.7708 128.259 18.7422 128.124 18.7109V17.2422C128.233 17.2682 128.371 17.2917 128.538 17.3125C128.705 17.3333 128.877 17.3438 129.054 17.3438C129.382 17.3438 129.666 17.2786 129.905 17.1484C130.145 17.0182 130.348 16.8333 130.515 16.5938C130.681 16.3594 130.819 16.0911 130.929 15.7891L131.233 14.9766L127.78 6.35156ZM147.241 15L143.952 5.46094H143.882C143.897 5.67448 143.915 5.96615 143.936 6.33594C143.957 6.70573 143.975 7.10156 143.991 7.52344C144.007 7.94531 144.014 8.34896 144.014 8.73438V15H142.311V3.57812H144.944L148.108 12.6953H148.155L151.428 3.57812H154.053V15H152.264V8.64062C152.264 8.29167 152.27 7.91406 152.28 7.50781C152.296 7.10156 152.311 6.71615 152.327 6.35156C152.348 5.98698 152.363 5.69531 152.374 5.47656H152.311L148.897 15H147.241ZM160.479 6.1875C161.25 6.1875 161.911 6.34635 162.463 6.66406C163.016 6.98177 163.44 7.43229 163.737 8.01562C164.034 8.59896 164.182 9.29688 164.182 10.1094V11.0938H158.409C158.43 11.9323 158.654 12.5781 159.081 13.0312C159.513 13.4844 160.117 13.7109 160.893 13.7109C161.445 13.7109 161.94 13.6589 162.378 13.5547C162.82 13.4453 163.276 13.2865 163.745 13.0781V14.5703C163.312 14.7734 162.872 14.9219 162.424 15.0156C161.976 15.1094 161.44 15.1562 160.815 15.1562C159.966 15.1562 159.219 14.9922 158.573 14.6641C157.932 14.3307 157.43 13.8359 157.065 13.1797C156.706 12.5234 156.526 11.7083 156.526 10.7344C156.526 9.76562 156.69 8.94271 157.018 8.26562C157.346 7.58854 157.807 7.07292 158.401 6.71875C158.995 6.36458 159.687 6.1875 160.479 6.1875ZM160.479 7.57031C159.901 7.57031 159.432 7.75781 159.073 8.13281C158.719 8.50781 158.51 9.05729 158.448 9.78125H162.385C162.38 9.34896 162.307 8.96615 162.167 8.63281C162.031 8.29948 161.823 8.03906 161.542 7.85156C161.266 7.66406 160.911 7.57031 160.479 7.57031ZM169.803 6.1875C170.897 6.1875 171.722 6.42969 172.28 6.91406C172.842 7.39844 173.123 8.15365 173.123 9.17969V15H171.819L171.467 13.7734H171.405C171.16 14.0859 170.907 14.3438 170.647 14.5469C170.386 14.75 170.084 14.901 169.741 15C169.402 15.1042 168.988 15.1562 168.498 15.1562C167.983 15.1562 167.522 15.0625 167.116 14.875C166.709 14.6823 166.389 14.3906 166.155 14C165.92 13.6094 165.803 13.1146 165.803 12.5156C165.803 11.625 166.134 10.9557 166.795 10.5078C167.462 10.0599 168.467 9.8125 169.811 9.76562L171.311 9.71094V9.25781C171.311 8.65885 171.17 8.23177 170.889 7.97656C170.613 7.72135 170.222 7.59375 169.717 7.59375C169.285 7.59375 168.866 7.65625 168.459 7.78125C168.053 7.90625 167.657 8.0599 167.272 8.24219L166.678 6.94531C167.1 6.72135 167.579 6.53906 168.116 6.39844C168.657 6.25781 169.22 6.1875 169.803 6.1875ZM171.303 10.8672L170.186 10.9062C169.269 10.9375 168.626 11.0938 168.256 11.375C167.886 11.6562 167.702 12.0417 167.702 12.5312C167.702 12.9583 167.829 13.2708 168.084 13.4688C168.34 13.6615 168.676 13.7578 169.092 13.7578C169.728 13.7578 170.254 13.5781 170.67 13.2188C171.092 12.8542 171.303 12.3203 171.303 11.6172V10.8672ZM181.666 12.5312C181.666 13.099 181.528 13.5781 181.252 13.9688C180.976 14.3594 180.573 14.6562 180.041 14.8594C179.515 15.0573 178.869 15.1562 178.104 15.1562C177.5 15.1562 176.979 15.112 176.541 15.0234C176.109 14.9401 175.7 14.8099 175.315 14.6328V13.0469C175.726 13.2396 176.187 13.4062 176.698 13.5469C177.213 13.6875 177.7 13.7578 178.158 13.7578C178.763 13.7578 179.198 13.6641 179.463 13.4766C179.729 13.2839 179.862 13.0286 179.862 12.7109C179.862 12.5234 179.807 12.3568 179.698 12.2109C179.593 12.0599 179.395 11.9062 179.104 11.75C178.817 11.5885 178.395 11.3958 177.838 11.1719C177.291 10.9531 176.83 10.7344 176.455 10.5156C176.08 10.2969 175.796 10.0339 175.604 9.72656C175.411 9.41406 175.315 9.01562 175.315 8.53125C175.315 7.76562 175.617 7.1849 176.221 6.78906C176.83 6.38802 177.635 6.1875 178.635 6.1875C179.166 6.1875 179.666 6.24219 180.135 6.35156C180.609 6.45573 181.073 6.60938 181.526 6.8125L180.948 8.19531C180.557 8.02344 180.164 7.88281 179.768 7.77344C179.377 7.65885 178.979 7.60156 178.573 7.60156C178.099 7.60156 177.737 7.67448 177.487 7.82031C177.242 7.96615 177.119 8.17448 177.119 8.44531C177.119 8.64844 177.179 8.82031 177.299 8.96094C177.419 9.10156 177.625 9.24219 177.916 9.38281C178.213 9.52344 178.625 9.69792 179.151 9.90625C179.666 10.1042 180.112 10.3125 180.487 10.5312C180.867 10.7448 181.158 11.0078 181.362 11.3203C181.565 11.6328 181.666 12.0365 181.666 12.5312ZM191.35 6.35156V15H189.904L189.654 13.8359H189.553C189.371 14.1328 189.139 14.3802 188.857 14.5781C188.576 14.7708 188.264 14.9141 187.92 15.0078C187.576 15.1068 187.214 15.1562 186.834 15.1562C186.183 15.1562 185.626 15.0469 185.162 14.8281C184.704 14.6042 184.352 14.2604 184.107 13.7969C183.863 13.3333 183.74 12.7344 183.74 12V6.35156H185.584V11.6562C185.584 12.3281 185.719 12.8307 185.99 13.1641C186.266 13.4974 186.693 13.6641 187.272 13.6641C187.829 13.6641 188.272 13.5495 188.6 13.3203C188.928 13.0911 189.16 12.7526 189.295 12.3047C189.436 11.8568 189.506 11.3073 189.506 10.6562V6.35156H191.35ZM198.525 6.1875C198.671 6.1875 198.83 6.19531 199.002 6.21094C199.174 6.22656 199.322 6.2474 199.447 6.27344L199.275 7.99219C199.166 7.96094 199.031 7.9375 198.869 7.92188C198.713 7.90625 198.572 7.89844 198.447 7.89844C198.119 7.89844 197.807 7.95312 197.51 8.0625C197.213 8.16667 196.95 8.32812 196.721 8.54688C196.491 8.76042 196.312 9.02865 196.182 9.35156C196.051 9.67448 195.986 10.0495 195.986 10.4766V15H194.143V6.35156H195.58L195.83 7.875H195.916C196.088 7.56771 196.301 7.28646 196.557 7.03125C196.812 6.77604 197.103 6.57292 197.432 6.42188C197.765 6.26562 198.129 6.1875 198.525 6.1875ZM204.654 6.1875C205.425 6.1875 206.086 6.34635 206.638 6.66406C207.191 6.98177 207.615 7.43229 207.912 8.01562C208.209 8.59896 208.357 9.29688 208.357 10.1094V11.0938H202.584C202.605 11.9323 202.829 12.5781 203.256 13.0312C203.688 13.4844 204.292 13.7109 205.068 13.7109C205.62 13.7109 206.115 13.6589 206.552 13.5547C206.995 13.4453 207.451 13.2865 207.92 13.0781V14.5703C207.487 14.7734 207.047 14.9219 206.599 15.0156C206.151 15.1094 205.615 15.1562 204.99 15.1562C204.141 15.1562 203.394 14.9922 202.748 14.6641C202.107 14.3307 201.605 13.8359 201.24 13.1797C200.881 12.5234 200.701 11.7083 200.701 10.7344C200.701 9.76562 200.865 8.94271 201.193 8.26562C201.521 7.58854 201.982 7.07292 202.576 6.71875C203.17 6.36458 203.862 6.1875 204.654 6.1875ZM204.654 7.57031C204.076 7.57031 203.607 7.75781 203.248 8.13281C202.894 8.50781 202.685 9.05729 202.623 9.78125H206.56C206.555 9.34896 206.482 8.96615 206.342 8.63281C206.206 8.29948 205.998 8.03906 205.717 7.85156C205.441 7.66406 205.086 7.57031 204.654 7.57031ZM84.2109 21.5781C85.1953 21.5781 86.0078 21.6979 86.6484 21.9375C87.2943 22.1771 87.7734 22.5417 88.0859 23.0312C88.4036 23.5208 88.5625 24.1432 88.5625 24.8984C88.5625 25.4609 88.4583 25.9401 88.25 26.3359C88.0417 26.7318 87.7682 27.0599 87.4297 27.3203C87.0911 27.5807 86.7292 27.7891 86.3438 27.9453L89.5859 33H87.4688L84.7109 28.4219H82.875V33H81V21.5781H84.2109ZM84.0859 23.1406H82.875V26.875H84.1719C85.0417 26.875 85.6719 26.7135 86.0625 26.3906C86.4583 26.0677 86.6562 25.5911 86.6562 24.9609C86.6562 24.2995 86.4453 23.8307 86.0234 23.5547C85.6068 23.2786 84.9609 23.1406 84.0859 23.1406ZM94.6366 24.1875C95.4074 24.1875 96.0689 24.3464 96.6209 24.6641C97.173 24.9818 97.5975 25.4323 97.8944 26.0156C98.1912 26.599 98.3397 27.2969 98.3397 28.1094V29.0938H92.5662C92.5871 29.9323 92.811 30.5781 93.2381 31.0312C93.6704 31.4844 94.2746 31.7109 95.0506 31.7109C95.6027 31.7109 96.0975 31.6589 96.535 31.5547C96.9777 31.4453 97.4334 31.2865 97.9022 31.0781V32.5703C97.4699 32.7734 97.0298 32.9219 96.5819 33.0156C96.134 33.1094 95.5975 33.1562 94.9725 33.1562C94.1235 33.1562 93.3761 32.9922 92.7303 32.6641C92.0897 32.3307 91.5871 31.8359 91.2225 31.1797C90.8631 30.5234 90.6834 29.7083 90.6834 28.7344C90.6834 27.7656 90.8475 26.9427 91.1756 26.2656C91.5037 25.5885 91.9647 25.0729 92.5584 24.7188C93.1522 24.3646 93.8449 24.1875 94.6366 24.1875ZM94.6366 25.5703C94.0584 25.5703 93.5897 25.7578 93.2303 26.1328C92.8761 26.5078 92.6678 27.0573 92.6053 27.7812H96.5428C96.5376 27.349 96.4647 26.9661 96.3241 26.6328C96.1886 26.2995 95.9803 26.0391 95.6991 25.8516C95.423 25.6641 95.0689 25.5703 94.6366 25.5703ZM105.007 24.1875C106.034 24.1875 106.856 24.5625 107.476 25.3125C108.101 26.0625 108.414 27.1771 108.414 28.6562C108.414 29.6354 108.268 30.4609 107.976 31.1328C107.69 31.7995 107.286 32.3047 106.765 32.6484C106.25 32.987 105.648 33.1562 104.961 33.1562C104.523 33.1562 104.143 33.099 103.82 32.9844C103.497 32.8698 103.221 32.7214 102.992 32.5391C102.763 32.3516 102.57 32.1484 102.414 31.9297H102.304C102.33 32.138 102.354 32.3698 102.375 32.625C102.401 32.875 102.414 33.1042 102.414 33.3125V36.8359H100.57V24.3516H102.07L102.328 25.5469H102.414C102.575 25.3021 102.771 25.0755 103 24.8672C103.234 24.6589 103.515 24.4948 103.843 24.375C104.177 24.25 104.565 24.1875 105.007 24.1875ZM104.515 25.6875C104.01 25.6875 103.604 25.7891 103.297 25.9922C102.994 26.1901 102.773 26.4896 102.632 26.8906C102.497 27.2917 102.424 27.7943 102.414 28.3984V28.6562C102.414 29.2969 102.479 29.8411 102.609 30.2891C102.744 30.7318 102.966 31.0703 103.273 31.3047C103.586 31.5339 104.007 31.6484 104.539 31.6484C104.987 31.6484 105.356 31.526 105.648 31.2812C105.945 31.0365 106.166 30.6875 106.312 30.2344C106.458 29.7812 106.531 29.2474 106.531 28.6328C106.531 27.7005 106.364 26.9766 106.031 26.4609C105.703 25.9453 105.198 25.6875 104.515 25.6875ZM118.355 28.6562C118.355 29.375 118.261 30.013 118.074 30.5703C117.886 31.1276 117.613 31.599 117.253 31.9844C116.894 32.3646 116.462 32.6562 115.957 32.8594C115.451 33.0573 114.881 33.1562 114.246 33.1562C113.652 33.1562 113.108 33.0573 112.613 32.8594C112.118 32.6562 111.688 32.3646 111.324 31.9844C110.964 31.599 110.686 31.1276 110.488 30.5703C110.29 30.013 110.191 29.375 110.191 28.6562C110.191 27.7031 110.355 26.8958 110.683 26.2344C111.016 25.5677 111.49 25.0599 112.105 24.7109C112.72 24.362 113.451 24.1875 114.3 24.1875C115.097 24.1875 115.8 24.362 116.41 24.7109C117.019 25.0599 117.496 25.5677 117.839 26.2344C118.183 26.901 118.355 27.7083 118.355 28.6562ZM112.082 28.6562C112.082 29.2865 112.157 29.8255 112.308 30.2734C112.464 30.7214 112.704 31.0651 113.027 31.3047C113.35 31.5391 113.766 31.6562 114.277 31.6562C114.787 31.6562 115.204 31.5391 115.527 31.3047C115.85 31.0651 116.087 30.7214 116.238 30.2734C116.389 29.8255 116.464 29.2865 116.464 28.6562C116.464 28.026 116.389 27.4922 116.238 27.0547C116.087 26.612 115.85 26.276 115.527 26.0469C115.204 25.8125 114.785 25.6953 114.269 25.6953C113.509 25.6953 112.954 25.9505 112.605 26.4609C112.256 26.9714 112.082 27.7031 112.082 28.6562ZM125.007 24.1875C125.153 24.1875 125.312 24.1953 125.484 24.2109C125.656 24.2266 125.804 24.2474 125.929 24.2734L125.757 25.9922C125.648 25.9609 125.512 25.9375 125.351 25.9219C125.195 25.9062 125.054 25.8984 124.929 25.8984C124.601 25.8984 124.288 25.9531 123.992 26.0625C123.695 26.1667 123.432 26.3281 123.202 26.5469C122.973 26.7604 122.794 27.0286 122.663 27.3516C122.533 27.6745 122.468 28.0495 122.468 28.4766V33H120.624V24.3516H122.062L122.312 25.875H122.398C122.57 25.5677 122.783 25.2865 123.038 25.0312C123.294 24.776 123.585 24.5729 123.913 24.4219C124.247 24.2656 124.611 24.1875 125.007 24.1875ZM130.909 31.6719C131.149 31.6719 131.386 31.651 131.62 31.6094C131.855 31.5625 132.068 31.5078 132.261 31.4453V32.8359C132.058 32.9245 131.795 33 131.472 33.0625C131.149 33.125 130.813 33.1562 130.464 33.1562C129.974 33.1562 129.534 33.0755 129.144 32.9141C128.753 32.7474 128.443 32.4635 128.214 32.0625C127.985 31.6615 127.87 31.1068 127.87 30.3984V25.75H126.691V24.9297L127.956 24.2812L128.558 22.4297H129.714V24.3516H132.191V25.75H129.714V30.375C129.714 30.8125 129.823 31.138 130.042 31.3516C130.261 31.5651 130.55 31.6719 130.909 31.6719ZM136.015 24.3516V33H134.179V24.3516H136.015ZM135.108 21.0391C135.39 21.0391 135.632 21.1146 135.835 21.2656C136.043 21.4167 136.147 21.6771 136.147 22.0469C136.147 22.4115 136.043 22.6719 135.835 22.8281C135.632 22.9792 135.39 23.0547 135.108 23.0547C134.817 23.0547 134.569 22.9792 134.366 22.8281C134.168 22.6719 134.069 22.4115 134.069 22.0469C134.069 21.6771 134.168 21.4167 134.366 21.2656C134.569 21.1146 134.817 21.0391 135.108 21.0391ZM143.315 24.1875C144.289 24.1875 145.047 24.4401 145.589 24.9453C146.136 25.4453 146.409 26.25 146.409 27.3594V33H144.573V27.7031C144.573 27.0312 144.435 26.5286 144.159 26.1953C143.883 25.8568 143.456 25.6875 142.878 25.6875C142.039 25.6875 141.456 25.9453 141.128 26.4609C140.805 26.9766 140.643 27.724 140.643 28.7031V33H138.807V24.3516H140.237L140.495 25.5234H140.597C140.784 25.2214 141.016 24.974 141.292 24.7812C141.573 24.5833 141.886 24.4349 142.229 24.3359C142.578 24.237 142.94 24.1875 143.315 24.1875ZM151.608 36.8438C150.436 36.8438 149.538 36.6328 148.913 36.2109C148.288 35.7891 147.975 35.1979 147.975 34.4375C147.975 33.9062 148.142 33.4557 148.475 33.0859C148.809 32.7214 149.285 32.4688 149.905 32.3281C149.671 32.224 149.467 32.0625 149.296 31.8438C149.129 31.6198 149.046 31.3724 149.046 31.1016C149.046 30.7786 149.137 30.5026 149.319 30.2734C149.501 30.0443 149.775 29.8229 150.139 29.6094C149.686 29.4167 149.322 29.1042 149.046 28.6719C148.775 28.2344 148.639 27.7214 148.639 27.1328C148.639 26.5078 148.772 25.9766 149.038 25.5391C149.303 25.0964 149.691 24.7604 150.202 24.5312C150.712 24.2969 151.329 24.1797 152.053 24.1797C152.21 24.1797 152.379 24.1901 152.561 24.2109C152.749 24.2266 152.921 24.2474 153.077 24.2734C153.238 24.2943 153.361 24.3177 153.444 24.3438H156.436V25.3672L154.967 25.6406C155.108 25.8385 155.22 26.0651 155.303 26.3203C155.387 26.5703 155.428 26.8438 155.428 27.1406C155.428 28.0365 155.119 28.7422 154.499 29.2578C153.884 29.7682 153.035 30.0234 151.952 30.0234C151.691 30.013 151.439 29.9922 151.194 29.9609C151.007 30.0755 150.863 30.2031 150.764 30.3438C150.665 30.4792 150.616 30.6328 150.616 30.8047C150.616 30.9453 150.665 31.0599 150.764 31.1484C150.863 31.2318 151.009 31.2943 151.202 31.3359C151.4 31.3776 151.639 31.3984 151.921 31.3984H153.413C154.361 31.3984 155.085 31.599 155.585 32C156.085 32.401 156.335 32.9896 156.335 33.7656C156.335 34.75 155.928 35.5078 155.116 36.0391C154.303 36.5755 153.134 36.8438 151.608 36.8438ZM151.678 35.5547C152.319 35.5547 152.858 35.4922 153.296 35.3672C153.733 35.2422 154.064 35.0625 154.288 34.8281C154.512 34.599 154.624 34.3255 154.624 34.0078C154.624 33.7266 154.553 33.5104 154.413 33.3594C154.272 33.2083 154.061 33.1042 153.78 33.0469C153.499 32.9896 153.15 32.9609 152.733 32.9609H151.374C151.035 32.9609 150.736 33.013 150.475 33.1172C150.215 33.2266 150.012 33.3828 149.866 33.5859C149.725 33.7891 149.655 34.0339 149.655 34.3203C149.655 34.7161 149.829 35.0208 150.178 35.2344C150.533 35.4479 151.033 35.5547 151.678 35.5547ZM152.038 28.8203C152.574 28.8203 152.973 28.6745 153.233 28.3828C153.494 28.0859 153.624 27.6693 153.624 27.1328C153.624 26.5495 153.488 26.112 153.217 25.8203C152.952 25.5286 152.556 25.3828 152.03 25.3828C151.514 25.3828 151.121 25.5312 150.85 25.8281C150.585 26.125 150.452 26.5651 150.452 27.1484C150.452 27.6745 150.585 28.0859 150.85 28.3828C151.121 28.6745 151.517 28.8203 152.038 28.8203Z" fill="#5B616B"/>
<line x1="69" y1="1" x2="69" y2="35" stroke="#D6D7D9"/>
<line x1="209.5" y1="45.5" x2="0.5" y2="45.5" stroke="#D6D7D9"/>
</svg>
